<svg width="32" height="22" viewBox="0 0 32 22" fill="none" xmlns="http://www.w3.org/2000/svg">
<path d="M26.1617 16.0439C25.3798 16.0439 24.6369 16.3502 24.0766 16.904C23.5162 17.4644 23.2034 18.1942 23.2034 18.9761C23.2034 19.758 23.5097 20.4878 24.0766 21.0482C24.6435 21.602 25.3798 21.9083 26.1617 21.9083C27.7646 21.9083 29.0678 20.5921 29.0678 18.9761C29.0678 17.3601 27.7646 16.0439 26.1617 16.0439ZM26.1617 20.6051C25.2625 20.6051 24.5066 19.8623 24.5066 18.9761C24.5066 18.0899 25.2625 17.3471 26.1617 17.3471C27.0478 17.3471 27.7646 18.0769 27.7646 18.9761C27.7646 19.8753 27.0478 20.6051 26.1617 20.6051ZM26.9175 6.27644C26.8002 6.16567 26.6439 6.10703 26.481 6.10703H23.1383C22.7799 6.10703 22.4867 6.40024 22.4867 6.75862V12.1017C22.4867 12.4601 22.7799 12.7533 23.1383 12.7533H28.4423C28.8006 12.7533 29.0939 12.4601 29.0939 12.1017V8.52445C29.0939 8.34201 29.0157 8.16608 28.8788 8.04227L26.9175 6.27644ZM27.7907 11.4501H23.7899V7.40371H26.2268L27.7907 8.81116V11.4501ZM10.2496 16.0439C9.46773 16.0439 8.7249 16.3502 8.16453 16.904C7.60415 17.4644 7.29139 18.1942 7.29139 18.9761C7.29139 19.758 7.59764 20.4878 8.16453 21.0482C8.73142 21.602 9.46773 21.9083 10.2496 21.9083C11.8526 21.9083 13.1558 20.5921 13.1558 18.9761C13.1558 17.3601 11.8526 16.0439 10.2496 16.0439ZM10.2496 20.6051C9.35044 20.6051 8.59458 19.8623 8.59458 18.9761C8.59458 18.0899 9.35044 17.3471 10.2496 17.3471C11.1358 17.3471 11.8526 18.0769 11.8526 18.9761C11.8526 19.8753 11.1358 20.6051 10.2496 20.6051ZM5.90348 16.8454H4.59377V15.1121C4.59377 14.7537 4.30055 14.4605 3.94217 14.4605C3.58379 14.4605 3.29057 14.7537 3.29057 15.1121V17.497C3.29057 17.8553 3.58379 18.1486 3.94217 18.1486H5.90348C6.26186 18.1486 6.55508 17.8553 6.55508 17.497C6.55508 17.1386 6.26186 16.8454 5.90348 16.8454ZM9.20709 13.2942C9.20709 12.9358 8.91387 12.6426 8.55549 12.6426H0.651598C0.293219 12.6426 0 12.9358 0 13.2942C0 13.6525 0.293219 13.9458 0.651598 13.9458H8.55549C8.91387 13.9458 9.20709 13.659 9.20709 13.2942ZM1.97434 10.9419L9.87823 10.9875C10.2366 10.9875 10.5298 10.7008 10.5363 10.3424C10.5429 9.97752 10.2496 9.6843 9.89126 9.6843L1.98738 9.63869C1.98086 9.63869 1.98086 9.63869 1.98086 9.63869C1.62248 9.63869 1.32926 9.92539 1.32926 10.2838C1.32274 10.6487 1.61596 10.9419 1.97434 10.9419ZM3.3036 7.98363H11.2075C11.5659 7.98363 11.8591 7.69041 11.8591 7.33203C11.8591 6.97365 11.5659 6.68043 11.2075 6.68043H3.3036C2.94523 6.68043 2.65201 6.97365 2.65201 7.33203C2.65201 7.69041 2.94523 7.98363 3.3036 7.98363ZM31.7589 7.10397L27.0935 3.23999C26.9762 3.14225 26.8328 3.09013 26.6764 3.09013H21.19V0.744372C21.19 0.385993 20.8968 0.0927734 20.5384 0.0927734H3.94217C3.58379 0.0927734 3.29057 0.385993 3.29057 0.744372V5.51407C3.29057 5.87245 3.58379 6.16567 3.94217 6.16567C4.30055 6.16567 4.59377 5.87245 4.59377 5.51407V1.39597H19.8933V16.8454H14.5502C14.1918 16.8454 13.8986 17.1386 13.8986 17.497C13.8986 17.8553 14.1918 18.1486 14.5502 18.1486H22.5062C22.8646 18.1486 23.1578 17.8553 23.1578 17.497C23.1578 17.1386 22.8646 16.8454 22.5062 16.8454H21.1965V4.39332H26.4484L30.6968 7.91195L30.6512 16.8323H29.9735C29.6151 16.8323 29.3219 17.1256 29.3219 17.4839C29.3219 17.8423 29.6151 18.1355 29.9735 18.1355H31.2963C31.6546 18.1355 31.9479 17.8488 31.9479 17.4904L32 7.61222C31.9935 7.41674 31.9088 7.22777 31.7589 7.10397Z" fill="#E7462E"/>
</svg>
