<svg width="15" height="15" viewBox="0 0 15 15" fill="none" xmlns="http://www.w3.org/2000/svg">
<path d="M14.7007 4.34926L11.6473 1.29586C11.454 1.10254 11.197 0.996094 10.9236 0.996094C10.6502 0.996094 10.3933 1.10254 10.2 1.29586L9.48243 2.01336C9.37201 2.12378 9.29331 2.25366 9.24395 2.39183L5.88664 1.79076C5.88642 1.79071 5.88613 1.79071 5.88591 1.79065C4.37635 1.491 2.90247 2.4724 2.59805 3.98214L2.44321 4.75025C2.27219 5.59848 2.82321 6.42765 3.67144 6.59867C4.51973 6.76958 5.3489 6.21867 5.51992 5.37044L5.61457 4.90073L7.1201 5.03237L11.0517 8.96402L11.7643 9.67658C11.9086 9.82087 11.9085 10.0557 11.7643 10.2C11.6201 10.3442 11.3853 10.3443 11.241 10.2L9.33224 8.29123C9.19929 8.15828 8.98367 8.15828 8.85078 8.29123C8.71784 8.42417 8.71784 8.63974 8.85078 8.77268L10.7595 10.6814C10.8294 10.7513 10.8679 10.8443 10.8679 10.9431C10.8679 11.042 10.8294 11.1348 10.7595 11.2048C10.6152 11.349 10.3804 11.349 10.2362 11.2048L8.32745 9.29601C8.19451 9.16307 7.97889 9.16307 7.846 9.29601C7.71305 9.42896 7.71305 9.64452 7.846 9.77747L9.75474 11.6862C9.89903 11.8304 9.89903 12.0652 9.75474 12.2095C9.68483 12.2794 9.59189 12.3179 9.4931 12.3179C9.39426 12.3179 9.30131 12.2794 9.23141 12.2095L7.32267 10.3008C7.18972 10.1679 6.9741 10.1679 6.84121 10.3008C6.70827 10.4337 6.70827 10.6493 6.84121 10.7823L8.74995 12.691C8.89425 12.8353 8.89419 13.0701 8.74995 13.2144C8.60571 13.3586 8.37092 13.3587 8.22662 13.2144L1.47303 6.4609L0.581164 5.56904C0.448218 5.43609 0.232599 5.43609 0.0997097 5.56904C-0.0332366 5.70198 -0.0332366 5.91754 0.0997097 6.05049L0.991578 6.94236L1.96215 7.91293L1.42713 8.44795C1.25197 8.62311 1.15545 8.85604 1.15545 9.10383C1.15545 9.35162 1.25191 9.58454 1.42713 9.75971L1.60172 9.9343C1.75487 10.0874 1.95216 10.1804 2.16489 10.2014C2.18588 10.4141 2.27882 10.6114 2.43197 10.7645L2.60657 10.9391C2.7638 11.0964 2.96393 11.1851 3.16962 11.2055C3.19044 11.4185 3.2835 11.6161 3.43681 11.7693L3.61141 11.9439C3.76455 12.0971 3.96185 12.19 4.17457 12.211C4.19557 12.4237 4.28851 12.621 4.44165 12.7742L4.61625 12.9488C4.79709 13.1296 5.03461 13.22 5.27213 13.22C5.50965 13.22 5.74717 13.1296 5.92801 12.9488L6.46303 12.4138L7.74511 13.6958C7.94365 13.8944 8.20756 14.0037 8.48826 14.0037C8.76896 14.0037 9.03292 13.8943 9.23141 13.6958C9.41945 13.5078 9.52624 13.2608 9.53708 12.9967C9.80121 12.9859 10.0481 12.8791 10.2362 12.691C10.4301 12.4972 10.531 12.2459 10.5415 11.9915C10.7959 11.981 11.0473 11.88 11.241 11.6863C11.4349 11.4924 11.5358 11.2411 11.5463 10.9867C11.8007 10.9762 12.0521 10.8753 12.2459 10.6814C12.6557 10.2716 12.6557 9.60492 12.2459 9.19513L11.7741 8.72332L13.5003 6.99706L14.7008 5.79663C15.0997 5.39756 15.0997 4.74826 14.7007 4.34926ZM1.90858 9.2782C1.81241 9.18202 1.81241 9.02558 1.90858 8.9294L2.4103 8.42769L2.93368 8.95108L2.43197 9.45279C2.33585 9.54897 2.1793 9.54891 2.08318 9.45279L1.90858 9.2782ZM2.91343 10.283C2.81725 10.1869 2.81725 10.0304 2.91343 9.9343L3.41514 9.43259L3.93852 9.95598L3.43687 10.4577C3.34069 10.5538 3.18414 10.5539 3.08808 10.4577L2.91343 10.283ZM3.91821 11.2879C3.87163 11.2413 3.84598 11.1793 3.84598 11.1135C3.84598 11.0477 3.87163 10.9857 3.91821 10.9391L4.41992 10.4374L4.94325 10.9608L4.44154 11.4625C4.34542 11.5586 4.18893 11.5586 4.09281 11.4625L3.91821 11.2879ZM5.44644 12.4673C5.35032 12.5635 5.19377 12.5634 5.09765 12.4673L4.92305 12.2927C4.82688 12.1965 4.82688 12.0401 4.92305 11.9439L5.42476 11.4422L5.94815 11.9656L5.44644 12.4673ZM11.2925 8.24181L7.51394 4.46325C7.45731 4.40662 7.38264 4.37178 7.30286 4.36486L5.37063 4.19594C5.36059 4.19503 5.3506 4.19463 5.34073 4.19463C5.18021 4.19463 5.03954 4.30783 5.00726 4.46785L4.85241 5.23596C4.75561 5.71611 4.28647 6.02796 3.80598 5.93122C3.57339 5.88435 3.37292 5.74964 3.24162 5.55201C3.11032 5.35438 3.06379 5.11743 3.11072 4.88478L3.26557 4.11673C3.49628 2.9723 4.61455 2.22864 5.75943 2.45964C5.76181 2.46009 5.76425 2.4606 5.76669 2.461L9.07508 3.05333L9.48243 3.46068L12.7781 6.7563L11.2925 8.24181ZM14.2192 5.31512L13.2595 6.27485L9.96383 2.97922C9.89915 2.91454 9.86351 2.82852 9.86351 2.73699C9.86351 2.64547 9.89915 2.5595 9.96383 2.49476L10.6814 1.7772C10.7461 1.71252 10.8321 1.67688 10.9236 1.67688C11.015 1.67688 11.1011 1.71252 11.1658 1.7772L14.2192 4.8306C14.2839 4.89528 14.3195 4.9813 14.3195 5.07283C14.3195 5.16435 14.2839 5.25043 14.2192 5.31512Z" fill="black"/>
</svg>
