<svg width="122" height="122" viewBox="0 0 122 122" fill="none" xmlns="http://www.w3.org/2000/svg">
<path d="M87.9649 41.6443C89.8264 43.5059 89.8264 46.5235 87.9649 48.3841L55.9942 80.3557C54.1327 82.2163 51.116 82.2163 49.2544 80.3557L34.0351 65.1355C32.1736 63.2748 32.1736 60.2572 34.0351 58.3966C35.8958 56.535 38.9134 56.535 40.774 58.3966L52.6239 70.2464L81.2251 41.6443C83.0866 39.7837 86.1042 39.7837 87.9649 41.6443ZM122 61C122 94.7177 94.7131 122 61 122C27.2823 122 0 94.7131 0 61C0 27.2823 27.2869 0 61 0C94.7177 0 122 27.2869 122 61ZM112.469 61C112.469 32.5505 89.4458 9.53125 61 9.53125C32.5505 9.53125 9.53125 32.5542 9.53125 61C9.53125 89.4495 32.5542 112.469 61 112.469C89.4495 112.469 112.469 89.4458 112.469 61Z" fill="#C4C4C4"/>
</svg>
