<svg width="24" height="24" viewBox="0 0 24 24" fill="none" xmlns="http://www.w3.org/2000/svg">
<path d="M17.3155 2H7.68451C4.55002 2 2 4.55002 2 7.68451V17.3157C2 20.45 4.55002 23 7.68451 23H17.3157C20.45 23 23 20.45 23 17.3157V7.68451C23 4.55002 20.45 2 17.3155 2V2ZM21.7689 17.3157C21.7689 19.7711 19.7711 21.7689 17.3155 21.7689H7.68451C5.22886 21.7689 3.23111 19.7711 3.23111 17.3157V7.68451C3.23111 5.22886 5.22886 3.23111 7.68451 3.23111H17.3157C19.7711 3.23111 21.7689 5.22886 21.7689 7.68451V17.3157Z" fill="#C4C4C4"/>
<path d="M12.4998 6.75806C9.33363 6.75806 6.75781 9.33387 6.75781 12.5001C6.75781 15.6663 9.33363 18.2421 12.4998 18.2421C15.6661 18.2421 18.2419 15.6663 18.2419 12.5001C18.2419 9.33387 15.6661 6.75806 12.4998 6.75806ZM12.4998 17.011C10.0126 17.011 7.98892 14.9875 7.98892 12.5001C7.98892 10.0129 10.0126 7.98917 12.4998 7.98917C14.9872 7.98917 17.0108 10.0129 17.0108 12.5001C17.0108 14.9875 14.9872 17.011 12.4998 17.011Z" fill="#C4C4C4"/>
<path d="M18.3794 4.71875C17.4437 4.71875 16.6827 5.47994 16.6827 6.41545C16.6827 7.35112 17.4437 8.11231 18.3794 8.11231C19.315 8.11231 20.0762 7.35112 20.0762 6.41545C20.0762 5.47978 19.315 4.71875 18.3794 4.71875ZM18.3794 6.88104C18.1227 6.88104 17.9138 6.67212 17.9138 6.41545C17.9138 6.15862 18.1227 5.94986 18.3794 5.94986C18.6362 5.94986 18.8451 6.15862 18.8451 6.41545C18.8451 6.67212 18.6362 6.88104 18.3794 6.88104Z" fill="#C4C4C4"/>
</svg>
