<svg width="15" height="23" viewBox="0 0 15 23" fill="none" xmlns="http://www.w3.org/2000/svg">
<path d="M13.4236 12.2784C13.1296 11.6798 12.3 11.1758 11.1974 12.0264C9.69567 13.2235 7.30137 13.2235 7.30137 13.2235C7.30137 13.2235 4.90707 13.2235 3.40538 12.0264C2.30274 11.1758 1.47314 11.6798 1.1791 12.2784C0.654037 13.3285 1.24211 13.8431 2.57578 14.6937C3.72042 15.4288 5.28512 15.7018 6.29324 15.8069L5.45314 16.647C4.25599 17.8336 3.10084 18.9782 2.31324 19.7763C1.84068 20.2594 1.84068 21.026 2.31324 21.4776L2.46026 21.6456C2.93282 22.1181 3.70992 22.1181 4.18248 21.6456L7.30137 18.5162C8.50902 19.7028 9.65366 20.8475 10.4518 21.6456C10.9243 22.1181 11.6909 22.1181 12.174 21.6456L12.3105 21.4776C12.7936 21.026 12.7936 20.2594 12.3105 19.7763L9.1811 16.647L8.3515 15.7964C9.34912 15.7018 10.8928 15.4183 12.027 14.6937C13.3606 13.8431 13.9487 13.3285 13.4236 12.2784ZM7.30137 3.69884C8.75055 3.69884 9.9267 4.87498 9.9267 6.31366C9.9267 7.76285 8.75055 8.92849 7.30137 8.92849C5.85219 8.92849 4.67604 7.76285 4.67604 6.31366C4.67604 4.87498 5.85219 3.69884 7.30137 3.69884ZM7.30137 11.6273C10.2417 11.6273 12.615 9.25403 12.615 6.31366C12.615 3.3838 10.2417 1 7.30137 1C4.361 1 1.9877 3.3838 1.9877 6.31366C1.9877 9.25403 4.361 11.6273 7.30137 11.6273Z" stroke="#C4C4C4"/>
</svg>
