<svg width="16" height="17" viewBox="0 0 16 17" fill="none" xmlns="http://www.w3.org/2000/svg">
<g clip-path="url(#clip0)">
<path d="M15.9859 6.56637C15.9521 6.45621 15.8625 6.37588 15.7545 6.35914L10.5736 5.55915L8.25669 0.571163C8.20858 0.467095 8.10891 0.401367 8.00008 0.401367C7.89125 0.401367 7.7913 0.467095 7.74347 0.571163L5.42625 5.55946L0.245377 6.35945C0.137407 6.37618 0.0480517 6.45621 0.0139707 6.56667C-0.0195374 6.67652 0.00824285 6.79763 0.0864285 6.87827L3.83562 10.7611L2.95037 16.2438C2.93204 16.3579 2.97615 16.4733 3.06407 16.5414C3.15257 16.6102 3.2697 16.619 3.36564 16.5646L8.00008 13.9762L12.6339 16.5646C12.6758 16.588 12.7219 16.5996 12.7674 16.5996C12.8267 16.5996 12.8857 16.5801 12.9358 16.5414C13.024 16.4733 13.0681 16.3579 13.0495 16.2438L12.1645 10.7614L15.9137 6.87827C15.9916 6.79702 16.0197 6.67622 15.9859 6.56637Z" fill="#E7462E"/>
</g>
<defs>
<clipPath id="clip0">
<rect width="16" height="17" fill="white"/>
</clipPath>
</defs>
</svg>
