<svg width="17" height="17" viewBox="0 0 17 17" fill="none" xmlns="http://www.w3.org/2000/svg">
<path d="M13.8651 16.2438L12.9248 10.7614L16.9083 6.87827M13.8651 16.2438L16.2754 6.797M13.8651 16.2438C13.8849 16.3579 13.838 16.4733 13.7443 16.5414M13.8651 16.2438L13.4236 16.5646C13.468 16.588 13.517 16.5996 13.5654 16.5996C13.6284 16.5996 13.691 16.5801 13.7443 16.5414M16.9083 6.87827C16.9911 6.79702 17.0209 6.67622 16.985 6.56637C16.9491 6.45621 16.8539 6.37588 16.7392 6.35914M16.9083 6.87827L16.6953 6.66119M16.9083 6.87827L16.6963 6.66074L16.6961 6.66054L16.6954 6.65987M16.7392 6.35914L16.6953 6.65972M16.7392 6.35914L16.6954 6.65987M16.7392 6.35914L16.6953 6.66119M16.6953 6.65972L16.5593 6.52023L16.5581 6.52145L16.2754 6.797M16.6953 6.65972L16.6951 6.66086L16.6951 6.66104M16.6953 6.65972L16.6954 6.65987M16.2754 6.797L11.1626 6.05395L10.9024 6.01615L10.7861 5.78044L8.50008 1.14848L6.21376 5.78075L6.09742 6.01646L5.8373 6.05426L0.725019 6.79722L4.42434 10.403L4.61259 10.5865L4.56815 10.8456L3.69466 15.9373L8.26744 13.5337L8.5001 13.4114L8.73275 13.5337L13.3053 15.9375L12.432 10.8459L12.3876 10.5868L12.5758 10.4033L16.2754 6.797ZM13.7443 16.5414L13.5656 16.2957L13.5655 16.2955L13.5654 16.2954L13.5653 16.2953L13.5652 16.2952L13.4502 16.1371C13.3904 16.1806 13.3598 16.2546 13.3723 16.3284C13.3723 16.3286 13.3724 16.3289 13.3724 16.3292L13.7443 16.5414ZM16.6951 6.66104L16.6952 6.66111L16.6953 6.66119M16.6951 6.66104L16.6951 6.66113L16.667 6.8539L16.6672 6.85394L16.6953 6.66119M16.6951 6.66104L16.6953 6.66119M16.6954 6.65987L16.6953 6.6608L16.6953 6.66108L16.6953 6.66119" stroke="#DBDBDB"/>
</svg>
