<svg width="9" height="11" viewBox="0 0 9 11" fill="none" xmlns="http://www.w3.org/2000/svg">
<path d="M4.50001 8.4997C2.84251 8.4997 1.50001 7.1572 1.50001 5.4997C1.50001 4.9922 1.62751 4.5172 1.84752 4.0972L1.11751 3.36719C0.729992 3.98718 0.5 4.71468 0.5 5.4997C0.5 7.70969 2.28999 9.49971 4.50001 9.49971V10.9997L6.5 8.99969L4.50001 6.9997V8.4997Z" fill="#1A1A1A"/>
<path d="M4.49999 1.5V0L2.5 1.99999L4.49999 3.99999V2.49999C6.15749 2.49999 7.49998 3.84249 7.49998 5.49999C7.49998 6.00748 7.37248 6.48249 7.15248 6.90249L7.88248 7.6325C8.26997 7.01251 8.49999 6.285 8.49999 5.49999C8.49997 3.28999 6.70998 1.5 4.49999 1.5Z" fill="#1A1A1A"/>
</svg>
