<svg width="34" height="34" viewBox="0 0 34 34" fill="none" xmlns="http://www.w3.org/2000/svg">
<path d="M33.3075 9.1224C32.8222 7.32825 31.4052 5.9138 29.6138 5.43216C27.0627 4.73503 18.0223 4.7149 16.9999 4.7149C15.9781 4.7149 6.94387 4.73423 4.3986 5.403C4.39402 5.40427 4.3895 5.40546 4.38499 5.40672C2.61985 5.89056 1.17001 7.35063 0.69122 9.12619C0.690622 9.12865 0.689958 9.13104 0.689294 9.13349C0.00783591 11.7193 0 16.7856 0 17C0 17.2155 0.00783591 22.3079 0.691286 24.8738C1.17552 26.6699 2.59329 28.0859 4.38944 28.5688C6.964 29.265 15.9803 29.2851 16.9999 29.2851C18.0217 29.2851 27.0559 29.2658 29.6012 28.5969C29.6036 28.5963 29.606 28.5956 29.6084 28.595C31.4065 28.1115 32.8243 26.6956 33.3086 24.8996C33.3092 24.8972 33.3098 24.8947 33.3105 24.8923C33.9883 22.3203 33.9997 17.2945 33.9998 17.0297C34.001 16.7756 34.0155 11.7074 33.3075 9.1224ZM31.3434 17.0258C31.3434 18.3897 31.2355 22.3374 30.7429 24.2116C30.5036 25.094 29.8065 25.7899 28.9222 26.029C27.0409 26.5209 19.6794 26.6288 16.9999 26.6289C14.3273 26.6289 6.97641 26.5168 5.08099 26.0041C4.19387 25.7657 3.49462 25.0675 3.25695 24.1863C2.66394 21.9598 2.65624 17.0492 2.65624 17C2.65624 15.6362 2.76415 11.6893 3.25668 9.81482C3.49515 8.93461 4.21041 8.21145 5.08072 7.97019C6.96765 7.47905 14.3219 7.37121 16.9999 7.37115C19.6791 7.37115 27.0424 7.48311 28.9187 7.99589C29.8058 8.23436 30.5051 8.93248 30.7438 9.81774C30.7442 9.81947 30.7448 9.82126 30.7452 9.82299C31.2556 11.6853 31.3501 15.6491 31.3434 17.0258Z" fill="black"/>
<path d="M12.6227 10.017V23.983L24.7068 17L12.6227 10.017ZM15.279 14.6198L19.3979 17L15.279 19.3803V14.6198Z" fill="black"/>
</svg>
