<svg width="276" height="277" viewBox="0 0 276 277" fill="none" xmlns="http://www.w3.org/2000/svg">
<g opacity="0.3">
<path d="M140.761 56.4399C185.268 73.1755 211.299 117.572 206.699 162.773C211.711 155.712 215.915 147.902 219.106 139.409C239.023 86.3846 212.205 27.2465 159.21 7.31516C106.214 -12.6102 35.1878 8.99648 15.2708 62.0204C12.0795 70.5135 10.1032 79.1585 9.22461 87.7767C35.5195 50.7312 96.249 39.7013 140.761 56.4399Z" fill="#E8E8E8"/>
<path d="M217.189 143.549C198.398 187.252 152.855 211.189 107.941 204.476C114.759 209.815 122.359 214.385 130.687 217.969C182.696 240.355 242.991 216.323 265.367 164.288C287.745 112.254 275.3 46.5219 223.294 24.1342C214.966 20.551 206.427 18.1691 197.864 16.8903C233.618 44.9032 235.983 99.847 217.189 143.549Z" fill="#E8E8E8"/>
<path d="M135.406 219.704C90.8947 202.968 64.8653 158.571 69.465 113.369C64.4521 120.431 60.2472 128.242 57.0582 136.732C37.1391 189.759 63.9575 248.897 116.953 268.825C169.951 288.754 233.871 272.251 253.789 219.227C256.98 210.734 258.955 202.085 259.834 193.471C233.537 230.512 179.913 236.44 135.406 219.704Z" fill="#E8E8E8"/>
<path d="M58.9724 132.594C77.7662 88.8884 123.308 64.9536 168.221 71.6669C161.403 66.3249 153.803 61.7579 145.475 58.1747C93.4688 35.784 33.1697 59.8202 10.795 111.854C-11.5801 163.889 0.174705 229.937 52.1813 252.327C60.5122 255.911 69.0513 258.293 77.6148 259.571C41.8614 231.559 40.1798 176.296 58.9724 132.594Z" fill="#E8E8E8"/>
</g>
</svg>
