<svg width="24" height="24" viewBox="0 0 24 24" fill="none" xmlns="http://www.w3.org/2000/svg">
<path d="M13.735 21.795L9.235 17.545C9.085 17.404 9 17.207 9 17C9 16.793 9.085 16.596 9.235 16.455L13.735 12.205C14.211 11.757 15 12.091 15 12.75V15H20.25C21.49 15 22.5 13.991 22.5 12.75C22.5 12.336 22.836 12 23.25 12C23.664 12 24 12.336 24 12.75V14.25C24 16.869 21.869 19 19.25 19H15V21.25C15 21.912 14.208 22.242 13.735 21.795Z" fill="#FFD600"/>
<path d="M12 0C5.383 0 0 5.383 0 12C0 18.617 5.383 24 12 24C12.518 24 13.026 23.956 13.527 23.892C13.133 23.784 12.671 23.542 12.361 23.249C7.629 18.779 7.274 18.685 7.049 17.479C6.831 16.258 7.337 15.496 8.168 14.712C8.101 14.163 8.059 13.587 8.032 13H9.98C9.98 13 12.49 10.563 13 10.303V7.974C13.88 7.939 14.742 7.859 15.575 7.734C15.756 8.618 15.889 9.576 15.952 10.596C16.756 11.232 17 12.022 17 13H17.976C17.989 12.67 18 12.339 18 12C18 10.328 17.844 8.758 17.561 7.337C18.543 7.091 19.46 6.784 20.276 6.414C21.069 7.588 21.622 8.937 21.859 10.391C22.268 10.149 22.74 10 23.25 10C23.449 10 23.642 10.024 23.829 10.064C22.899 4.367 17.957 0 12 0ZM2.051 11C2.219 9.312 2.809 7.745 3.713 6.409C4.532 6.782 5.452 7.09 6.439 7.337C6.214 8.47 6.073 9.7 6.024 11H2.051ZM5.068 4.809C5.933 3.975 6.943 3.292 8.062 2.811C7.624 3.555 7.245 4.427 6.935 5.404C6.269 5.238 5.644 5.039 5.068 4.809ZM11 2.385V5.975C10.295 5.945 9.608 5.88 8.941 5.789C9.493 4.156 10.23 2.959 11 2.385ZM8.057 21.18C6.941 20.699 5.932 20.022 5.069 19.19C5.646 18.961 6.27 18.762 6.935 18.596C7.244 19.571 7.621 20.439 8.057 21.18ZM6.439 16.664C5.456 16.91 4.538 17.217 3.722 17.587C2.817 16.25 2.22 14.689 2.052 13H6.024C6.073 14.3 6.214 15.531 6.439 16.664ZM8.023 11C8.074 9.829 8.216 8.734 8.421 7.734C9.255 7.858 10.119 7.939 11 7.974V11H8.023ZM13 5.975V2.381C13.769 2.955 14.506 4.156 15.057 5.789C14.39 5.88 13.704 5.945 13 5.975ZM15.945 2.824C17.058 3.306 18.065 3.981 18.925 4.813C18.35 5.042 17.728 5.24 17.065 5.405C16.757 4.432 16.38 3.565 15.945 2.824Z" fill="#FFD600"/>
</svg>
