<svg width="24" height="24" viewBox="0 0 24 24" fill="none" xmlns="http://www.w3.org/2000/svg">
<g clip-path="url(#clip0)">
<path d="M23.685 8.13875L12.435 0.13875C12.175 -0.04625 11.826 -0.04625 11.566 0.13875L0.316 8.13875C0.118 8.27875 0 8.50675 0 8.74975V12.2498C0 12.5308 0.157 12.7878 0.406 12.9168C0.656 13.0448 0.955 13.0238 1.184 12.8618L2 12.2808V22.9998C2 23.5518 2.448 23.9998 3 23.9998H5V11.9998H19V23.9998H21C21.552 23.9998 22 23.5518 22 22.9998V12.2808L22.815 12.8608C22.945 12.9528 23.097 12.9998 23.25 12.9998C23.368 12.9998 23.485 12.9718 23.594 12.9168C23.843 12.7878 24 12.5308 24 12.2498V8.74975C24 8.50675 23.882 8.27875 23.685 8.13875Z" fill="#FFD600"/>
<path d="M6.5 21.5H17.5V24H6.5V21.5Z" fill="#FFD600"/>
<path d="M6.5 17.5H17.5V20H6.5V17.5Z" fill="#FFD600"/>
<path d="M6.5 13.5H17.5V16H6.5V13.5Z" fill="#FFD600"/>
</g>
<defs>
<clipPath id="clip0">
<rect width="24" height="24" fill="white"/>
</clipPath>
</defs>
</svg>
