<svg width="24" height="24" viewBox="0 0 24 24" fill="none" xmlns="http://www.w3.org/2000/svg">
<g clip-path="url(#clip0)">
<path d="M3.01849 13.9029C3.22101 14.1046 3.52258 14.1651 3.78479 14.0552C4.04773 13.9468 4.21875 13.6899 4.21875 13.4057V12H7.78125C9.33252 12 10.5938 13.2614 10.5938 14.8125V23.2969C10.5938 23.6856 10.9083 24 11.2969 24H12.7031C13.0919 24 13.4062 23.6856 13.4062 23.2969V14.8125C13.4062 11.7109 10.8829 9.18752 7.78125 9.18752H4.21875V7.78145C4.21875 7.49727 4.04773 7.24037 3.78479 7.13198C3.52112 7.02211 3.22046 7.084 3.01849 7.28432L0.205994 10.0966C-0.0686646 10.3713 -0.0686646 10.8162 0.205994 11.0909L3.01849 13.9029Z" fill="#FFD600"/>
<path d="M12 9.22339C12.4361 8.89325 12.8994 8.59973 13.4062 8.37726V4.21875H14.8123C15.0965 4.21875 15.3534 4.04773 15.4618 3.78479C15.5711 3.52185 15.5107 3.21973 15.3094 3.01849L12.4971 0.205994C12.3598 0.0686646 12.18 0 12 0C11.8202 0 11.6402 0.0686646 11.5028 0.205994L8.69053 3.01849C8.48929 3.21973 8.42887 3.52185 8.53818 3.78479C8.64658 4.04773 8.90348 4.21875 9.18766 4.21875H10.5937V8.37726C11.1006 8.59973 11.5638 8.89325 12 9.22339Z" fill="#FFD600"/>
<path d="M20.9818 7.28432C20.7798 7.084 20.4792 7.02211 20.2155 7.13198C19.9526 7.24037 19.7816 7.49727 19.7816 7.78145V9.18752H16.2191C15.036 9.18752 13.9401 9.55867 13.0332 10.1851C13.6611 10.8968 14.1379 11.7312 14.4384 12.6537C14.9249 12.2516 15.5399 12 16.2191 12H19.7816V13.4057C19.7816 13.6899 19.9526 13.9468 20.2155 14.0552C20.4779 14.1651 20.7793 14.1046 20.9818 13.9029L23.7943 11.0909C24.069 10.8162 24.069 10.3713 23.7943 10.0966L20.9818 7.28432Z" fill="#FFD600"/>
</g>
<defs>
<clipPath id="clip0">
<rect width="24" height="24" fill="white"/>
</clipPath>
</defs>
</svg>
