<svg width="40" height="40" viewBox="0 0 40 40" fill="none" xmlns="http://www.w3.org/2000/svg">
<path d="M15.2344 28.75C15.2344 21.7455 20.5904 15.9691 27.4219 15.2998V1.17188C27.4219 0.524687 26.8972 0 26.25 0H1.17188C0.524687 0 0 0.524687 0 1.17188V36.25C0 36.8972 0.524687 37.4219 1.17188 37.4219H18.392C16.4222 35.0733 15.2344 32.048 15.2344 28.75ZM5.07812 12.5V6.25C5.07812 5.60281 5.60281 5.07812 6.25 5.07812H21.25C21.8972 5.07812 22.4219 5.60281 22.4219 6.25V12.5C22.4219 13.1472 21.8972 13.6719 21.25 13.6719H6.25C5.60281 13.6719 5.07812 13.1472 5.07812 12.5ZM8.125 31.1719H6.875C6.22781 31.1719 5.70312 30.6472 5.70312 30C5.70312 29.3528 6.22781 28.8281 6.875 28.8281H8.125C8.77219 28.8281 9.29688 29.3528 9.29688 30C9.29688 30.6472 8.77219 31.1719 8.125 31.1719ZM8.125 24.9219H6.875C6.22781 24.9219 5.70312 24.3972 5.70312 23.75C5.70312 23.1028 6.22781 22.5781 6.875 22.5781H8.125C8.77219 22.5781 9.29688 23.1028 9.29688 23.75C9.29688 24.3972 8.77219 24.9219 8.125 24.9219ZM8.125 18.6719H6.875C6.22781 18.6719 5.70312 18.1472 5.70312 17.5C5.70312 16.8528 6.22781 16.3281 6.875 16.3281H8.125C8.77219 16.3281 9.29688 16.8528 9.29688 17.5C9.29688 18.1472 8.77219 18.6719 8.125 18.6719ZM14.375 18.6719H13.125C12.4778 18.6719 11.9531 18.1472 11.9531 17.5C11.9531 16.8528 12.4778 16.3281 13.125 16.3281H14.375C15.0222 16.3281 15.5469 16.8528 15.5469 17.5C15.5469 18.1472 15.0222 18.6719 14.375 18.6719Z" fill="url(#paint0_linear)"/>
<path d="M28.4188 17.5834C22.4046 17.7606 17.5781 22.7071 17.5781 28.75C17.5781 34.9092 22.592 40 28.75 40C34.9102 40 40 34.9102 40 28.75C40 22.4342 34.6713 17.3915 28.4188 17.5834ZM29.9234 33.8234V34.0684C29.9234 34.7155 29.3987 35.2402 28.7516 35.2402C28.1044 35.2402 27.5797 34.7155 27.5797 34.0684V33.9559C27.0398 33.8612 26.5465 33.6592 25.9233 33.2515C25.3816 32.8972 25.2298 32.1709 25.5841 31.6293C25.9384 31.0876 26.6648 30.9359 27.2063 31.2901C27.7776 31.6639 27.9627 31.693 28.7436 31.6876C29.4975 31.6826 29.7979 31.0908 29.8566 30.7419C29.9092 30.4287 29.8501 30.0123 29.2693 29.8071C28.2963 29.4631 27.2986 29.0684 26.5918 28.5141C24.9823 27.2517 25.4682 24.3685 27.5798 23.6012V23.4316C27.5798 22.7844 28.1045 22.2597 28.7516 22.2597C29.3988 22.2597 29.9235 22.7844 29.9235 23.4316V23.4965C30.5009 23.6594 30.9659 23.9542 31.2854 24.2791C31.7392 24.7405 31.733 25.4825 31.2716 25.9362C30.8103 26.3898 30.0689 26.3838 29.6152 25.9232C29.5498 25.8594 29.1888 25.5584 28.4072 25.7937C28.0952 25.8877 28.0113 26.2113 27.993 26.3082C27.9549 26.5105 28.0092 26.6469 28.0383 26.6698C28.4803 27.0165 29.3035 27.3331 30.0505 27.5973C33.1391 28.6891 32.7628 32.7969 29.9234 33.8234Z" fill="url(#paint1_linear)"/>
<path d="M7.42188 7.42188H20.0781V11.3281H7.42188V7.42188Z" fill="url(#paint2_linear)"/>
<defs>
<linearGradient id="paint0_linear" x1="13.7109" y1="-4.39045e-05" x2="13.7109" y2="37.4221" gradientUnits="userSpaceOnUse">
<stop stop-color="#EFEE0E"/>
<stop offset="0.999999" stop-color="#F57E13"/>
<stop offset="1" stop-color="#F57E13"/>
</linearGradient>
<linearGradient id="paint1_linear" x1="28.7891" y1="17.5781" x2="28.7891" y2="40.0002" gradientUnits="userSpaceOnUse">
<stop stop-color="#EFEE0E"/>
<stop offset="0.999999" stop-color="#F57E13"/>
<stop offset="1" stop-color="#F57E13"/>
</linearGradient>
<linearGradient id="paint2_linear" x1="13.75" y1="7.42187" x2="13.75" y2="11.3281" gradientUnits="userSpaceOnUse">
<stop stop-color="#EFEE0E"/>
<stop offset="0.999999" stop-color="#F57E13"/>
<stop offset="1" stop-color="#F57E13"/>
</linearGradient>
</defs>
</svg>
