<svg width="40" height="40" viewBox="0 0 40 40" fill="none" xmlns="http://www.w3.org/2000/svg">
<path d="M34.1422 5.85789C30.3647 2.08039 25.3422 0 20 0C14.6578 0 9.63531 2.08039 5.85781 5.85789C2.08031 9.63539 0 14.6578 0 20C0 25.3422 2.08031 30.3647 5.85781 34.1421C9.63531 37.9195 14.6578 40 20 40C25.3422 40 30.3647 37.9196 34.1422 34.1421C37.9197 30.3646 40 25.3422 40 20C40 14.6578 37.9197 9.63531 34.1422 5.85789ZM20 36.0744C11.1365 36.0744 3.92563 28.8634 3.92563 20C3.92563 19.9855 3.92609 19.9711 3.92617 19.9567C3.92617 19.953 3.92563 19.9495 3.92563 19.9459C3.92563 19.9397 3.92641 19.9338 3.92656 19.9277C3.96555 11.1704 11.0427 4.04563 19.7816 3.92844C19.7998 3.92758 19.818 3.9257 19.8365 3.9257C19.8476 3.9257 19.8584 3.92703 19.8694 3.92734C19.913 3.92703 19.9564 3.9257 20.0001 3.9257C28.8636 3.9257 36.0745 11.1366 36.0745 20.0001C36.0745 28.8635 28.8635 36.0744 20 36.0744Z" fill="url(#paint0_linear)"/>
<path d="M32.2101 20.9673C31.5565 20.9673 31.0266 20.4374 31.0266 19.7838C31.0266 19.1302 31.5565 18.6004 32.2101 18.6004H33.6365C32.9665 12.032 27.6395 6.82125 21.02 6.33203V7.57383C21.02 8.22742 20.4901 8.75727 19.8365 8.75727C19.1829 8.75727 18.6531 8.22742 18.6531 7.57383V6.36031C12.1315 6.99937 6.93678 12.2277 6.34904 18.7639H7.62654C8.28014 18.7639 8.80998 19.2937 8.80998 19.9473C8.80998 20.6009 8.28014 21.1308 7.62654 21.1308H6.33936C6.8835 27.7723 12.1824 33.0874 18.8167 33.6575V32.1573C18.8167 31.5037 19.3465 30.9738 20.0001 30.9738C20.6537 30.9738 21.1836 31.5037 21.1836 32.1573V33.6575C27.8722 33.0827 33.2033 27.6848 33.6732 20.9673H32.2101ZM24.7908 16.8846L20.837 20.8384C20.6151 21.0604 20.3141 21.1851 20.0002 21.1851C19.6864 21.1851 19.3853 21.0604 19.1634 20.8384L12.2812 13.9562C11.819 13.4941 11.819 12.7448 12.2812 12.2826C12.7433 11.8204 13.4926 11.8204 13.9547 12.2826L20.0003 18.328L23.1173 15.211C23.5794 14.7488 24.3287 14.7488 24.7909 15.211C25.2529 15.6731 25.2529 16.4225 24.7908 16.8846Z" fill="url(#paint1_linear)"/>
<defs>
<linearGradient id="paint0_linear" x1="20" y1="-4.69292e-05" x2="20" y2="40.0003" gradientUnits="userSpaceOnUse">
<stop stop-color="#EFEE0E"/>
<stop offset="0.999999" stop-color="#F57E13"/>
<stop offset="1" stop-color="#F57E13"/>
</linearGradient>
<linearGradient id="paint1_linear" x1="20.0063" y1="6.332" x2="20.0063" y2="33.6577" gradientUnits="userSpaceOnUse">
<stop stop-color="#EFEE0E"/>
<stop offset="0.999999" stop-color="#F57E13"/>
<stop offset="1" stop-color="#F57E13"/>
</linearGradient>
</defs>
</svg>
