<svg width="40" height="40" viewBox="0 0 40 40" fill="none" xmlns="http://www.w3.org/2000/svg">
<path d="M40 2.96875H0V32.0444H24.2032V29.1037C22.8488 27.8302 22.0016 26.0229 22.0016 24.0216C22.0016 20.1733 25.1324 17.0425 28.9807 17.0425C32.829 17.0425 35.9595 20.1733 35.9595 24.0216C35.9595 26.0229 35.1123 27.8302 33.7582 29.1037V32.0444H40V2.96875ZM31.7914 7.65991V10.0037H8.20862V7.65991H31.7914ZM4.69025 22.6617V20.318H16.0907V22.6617H4.69025ZM16.0907 25.0095V27.3532H4.69025V25.0095H16.0907ZM35.3098 14.6951H4.69025V12.3514H35.3098V14.6951Z" fill="url(#paint0_linear)"/>
<path d="M31.4144 37.0469V30.5625C30.6561 30.8454 29.8361 31.0004 28.9807 31.0004C28.1249 31.0004 27.3049 30.8454 26.5469 30.5625V37.0469L28.9807 35.8579L31.4144 37.0469Z" fill="url(#paint1_linear)"/>
<path d="M24.3457 24.022C24.3457 26.5779 26.4252 28.657 28.981 28.657C31.5369 28.657 33.616 26.5779 33.616 24.022C33.616 21.4662 31.5369 19.3867 28.981 19.3867C26.4252 19.3867 24.3457 21.4662 24.3457 24.022Z" fill="url(#paint2_linear)"/>
<defs>
<linearGradient id="paint0_linear" x1="20" y1="2.96872" x2="20" y2="32.0446" gradientUnits="userSpaceOnUse">
<stop stop-color="#EFEE0E"/>
<stop offset="0.999999" stop-color="#F57E13"/>
<stop offset="1" stop-color="#F57E13"/>
</linearGradient>
<linearGradient id="paint1_linear" x1="28.9807" y1="30.5625" x2="28.9807" y2="37.0469" gradientUnits="userSpaceOnUse">
<stop stop-color="#EFEE0E"/>
<stop offset="0.999999" stop-color="#F57E13"/>
<stop offset="1" stop-color="#F57E13"/>
</linearGradient>
<linearGradient id="paint2_linear" x1="28.9809" y1="19.3867" x2="28.9809" y2="28.6571" gradientUnits="userSpaceOnUse">
<stop stop-color="#EFEE0E"/>
<stop offset="0.999999" stop-color="#F57E13"/>
<stop offset="1" stop-color="#F57E13"/>
</linearGradient>
</defs>
</svg>
