<svg width="16" height="16" viewBox="0 0 16 16" fill="none" xmlns="http://www.w3.org/2000/svg">
<path d="M10.6055 8.08134L15.9995 11.4913V4.52734L10.6055 8.08134Z" fill="#1E272E"/>
<path d="M0 4.52734V11.4913L5.394 8.08134L0 4.52734Z" fill="#1E272E"/>
<path d="M14.9993 2.5H0.999297C0.500297 2.5 0.104297 2.872 0.0292969 3.351L7.9993 8.602L15.9693 3.351C15.8943 2.872 15.4983 2.5 14.9993 2.5Z" fill="#1E272E"/>
<path d="M9.68925 8.68655L8.27425 9.61855C8.19025 9.67355 8.09525 9.70055 7.99925 9.70055C7.90325 9.70055 7.80825 9.67355 7.72425 9.61855L6.30925 8.68555L0.03125 12.6565C0.10825 13.1315 0.50225 13.5005 0.99925 13.5005H14.9992C15.4962 13.5005 15.8902 13.1315 15.9672 12.6565L9.68925 8.68655Z" fill="#1E272E"/>
</svg>
