<svg width="56" height="56" viewBox="0 0 56 56" fill="none" xmlns="http://www.w3.org/2000/svg">
<circle r="27.5" transform="matrix(1 0 0 -1 28 28)" stroke="url(#paint0_linear)"/>
<path d="M32.8857 28.154L42.9995 34.5477V21.4902L32.8857 28.154Z" fill="url(#paint1_linear)"/>
<path d="M13 21.4902V34.5477L23.1137 28.154L13 21.4902Z" fill="url(#paint2_linear)"/>
<path d="M41.1254 17.6875H14.8754C13.9398 17.6875 13.1973 18.385 13.0566 19.2831L28.0004 29.1288L42.9441 19.2831C42.8035 18.385 42.061 17.6875 41.1254 17.6875Z" fill="url(#paint3_linear)"/>
<path d="M31.1693 29.2861L28.5162 31.0336C28.3587 31.1367 28.1805 31.1873 28.0005 31.1873C27.8205 31.1873 27.6424 31.1367 27.4849 31.0336L24.8318 29.2842L13.0605 36.7298C13.2049 37.6204 13.9437 38.3123 14.8755 38.3123H41.1255C42.0574 38.3123 42.7962 37.6204 42.9405 36.7298L31.1693 29.2861Z" fill="url(#paint4_linear)"/>
<defs>
<linearGradient id="paint0_linear" x1="28" y1="-6.57009e-05" x2="28" y2="56.0004" gradientUnits="userSpaceOnUse">
<stop stop-color="#EFEE0E"/>
<stop offset="0.999999" stop-color="#F57E13"/>
<stop offset="1" stop-color="#F57E13"/>
</linearGradient>
<linearGradient id="paint1_linear" x1="37.9426" y1="21.4902" x2="37.9426" y2="34.5478" gradientUnits="userSpaceOnUse">
<stop stop-color="#EFEE0E"/>
<stop offset="0.999999" stop-color="#F57E13"/>
<stop offset="1" stop-color="#F57E13"/>
</linearGradient>
<linearGradient id="paint2_linear" x1="18.0569" y1="21.4902" x2="18.0569" y2="34.5478" gradientUnits="userSpaceOnUse">
<stop stop-color="#EFEE0E"/>
<stop offset="0.999999" stop-color="#F57E13"/>
<stop offset="1" stop-color="#F57E13"/>
</linearGradient>
<linearGradient id="paint3_linear" x1="28.0004" y1="17.6875" x2="28.0004" y2="29.1288" gradientUnits="userSpaceOnUse">
<stop stop-color="#EFEE0E"/>
<stop offset="0.999999" stop-color="#F57E13"/>
<stop offset="1" stop-color="#F57E13"/>
</linearGradient>
<linearGradient id="paint4_linear" x1="28.0006" y1="29.2842" x2="28.0006" y2="38.3124" gradientUnits="userSpaceOnUse">
<stop stop-color="#EFEE0E"/>
<stop offset="0.999999" stop-color="#F57E13"/>
<stop offset="1" stop-color="#F57E13"/>
</linearGradient>
</defs>
</svg>
