<svg width="56" height="56" viewBox="0 0 56 56" fill="none" xmlns="http://www.w3.org/2000/svg">
<circle r="27.5" transform="matrix(1 0 0 -1 28 28)" stroke="url(#paint0_linear)"/>
<path d="M22.5845 14.9336H15.9145L15.7412 18.3125H22.7578L22.5845 14.9336Z" fill="url(#paint1_linear)"/>
<path d="M22.8487 20.0693H15.6519L15.5117 22.8016H22.9889L22.8487 20.0693Z" fill="url(#paint2_linear)"/>
<path d="M41.3789 39.3097V26.6074L35.3127 29.2181V26.6074L29.2465 29.2181V26.6031L25.0371 28.4294L25.5951 39.3097H23.835L23.0787 24.5615H15.4213L14.6651 39.3097H13V41.0675H43V39.3097H41.3789ZM30.7604 36.9659H29.0026V34.4659H30.7604V36.9659ZM34.3021 36.9659H32.5443V34.4659H34.3021V36.9659ZM37.8438 36.9659H36.0859V34.4659H37.8438V36.9659Z" fill="url(#paint3_linear)"/>
<defs>
<linearGradient id="paint0_linear" x1="28" y1="-6.57009e-05" x2="28" y2="56.0004" gradientUnits="userSpaceOnUse">
<stop stop-color="#EFEE0E"/>
<stop offset="0.999999" stop-color="#F57E13"/>
<stop offset="1" stop-color="#F57E13"/>
</linearGradient>
<linearGradient id="paint1_linear" x1="19.2495" y1="14.9336" x2="19.2495" y2="18.3125" gradientUnits="userSpaceOnUse">
<stop stop-color="#EFEE0E"/>
<stop offset="0.999999" stop-color="#F57E13"/>
<stop offset="1" stop-color="#F57E13"/>
</linearGradient>
<linearGradient id="paint2_linear" x1="19.2503" y1="20.0693" x2="19.2503" y2="22.8016" gradientUnits="userSpaceOnUse">
<stop stop-color="#EFEE0E"/>
<stop offset="0.999999" stop-color="#F57E13"/>
<stop offset="1" stop-color="#F57E13"/>
</linearGradient>
<linearGradient id="paint3_linear" x1="28" y1="24.5615" x2="28" y2="41.0676" gradientUnits="userSpaceOnUse">
<stop stop-color="#EFEE0E"/>
<stop offset="0.999999" stop-color="#F57E13"/>
<stop offset="1" stop-color="#F57E13"/>
</linearGradient>
</defs>
</svg>
