<svg width="56" height="56" viewBox="0 0 56 56" fill="none" xmlns="http://www.w3.org/2000/svg">
<circle r="27.5" transform="matrix(1 0 0 -1 28 28)" stroke="url(#paint0_linear)"/>
<path d="M27.9999 13C21.7599 13 16.6836 18.0763 16.6836 24.3155C16.6836 33.2989 26.7857 42.3234 27.216 42.7039C27.441 42.9013 27.7204 43 27.9999 43C28.2904 43 28.581 42.8934 28.8075 42.6811C29.2362 42.28 39.3162 32.7589 39.3162 24.3163C39.3162 18.0771 34.2383 13 27.9999 13ZM27.9999 29.7116C25.0196 29.7116 22.6046 27.295 22.6046 24.3171C22.6046 21.3392 25.0196 18.9226 27.9999 18.9226C30.9786 18.9226 33.3936 21.3384 33.3936 24.3171C33.3936 27.2958 30.9786 29.7116 27.9999 29.7116Z" fill="url(#paint1_linear)"/>
<defs>
<linearGradient id="paint0_linear" x1="28" y1="-6.57009e-05" x2="28" y2="56.0004" gradientUnits="userSpaceOnUse">
<stop stop-color="#EFEE0E"/>
<stop offset="0.999999" stop-color="#F57E13"/>
<stop offset="1" stop-color="#F57E13"/>
</linearGradient>
<linearGradient id="paint1_linear" x1="27.9999" y1="13" x2="27.9999" y2="43.0002" gradientUnits="userSpaceOnUse">
<stop stop-color="#EFEE0E"/>
<stop offset="0.999999" stop-color="#F57E13"/>
<stop offset="1" stop-color="#F57E13"/>
</linearGradient>
</defs>
</svg>
