<svg width="16" height="16" viewBox="0 0 16 16" fill="none" xmlns="http://www.w3.org/2000/svg">
<path d="M8.00021 0C4.67221 0 1.96484 2.70737 1.96484 6.03495C1.96484 10.8261 7.35263 15.6392 7.58211 15.8421C7.70211 15.9474 7.85116 16 8.00021 16C8.15516 16 8.31011 15.9432 8.43095 15.8299C8.65958 15.616 14.0356 10.5381 14.0356 6.03537C14.0356 2.70779 11.3274 0 8.00021 0ZM8.00021 8.91284C6.41074 8.91284 5.12274 7.624 5.12274 6.03579C5.12274 4.44758 6.41074 3.15874 8.00021 3.15874C9.58884 3.15874 10.8768 4.44716 10.8768 6.03579C10.8768 7.62442 9.58884 8.91284 8.00021 8.91284Z" fill="#1E272E"/>
</svg>
