<svg width="40" height="40" viewBox="0 0 40 40" fill="none" xmlns="http://www.w3.org/2000/svg">
<g clip-path="url(#clip0)">
<path d="M26.3987 28.033L28.2279 25.0648L31.5288 23.9391L31.8945 20.4721L34.378 18.0272L33.1972 14.7455L34.378 11.4637L31.8946 9.01875L31.5289 5.55188L28.2279 4.42609L26.3988 1.45789L22.939 1.87562L20 0L17.0611 1.87578L13.6014 1.45805L11.7722 4.42617L8.47129 5.55195L8.10559 9.01883L5.62207 11.4637L6.80285 14.7455L5.62207 18.0273L8.10551 20.4722L8.47121 23.9391L11.7721 25.0649L13.6013 28.033L17.0611 27.6154L20 29.4911L22.939 27.6154L26.3987 28.033ZM9.8884 14.7455C9.8884 9.17 14.4245 4.63391 20 4.63391C25.5756 4.63391 30.1117 9.17 30.1117 14.7455C30.1117 20.3211 25.5756 24.8572 20 24.8572C14.4245 24.8572 9.8884 20.3211 9.8884 14.7455Z" fill="url(#paint0_linear)"/>
<path d="M19.9998 6.98047C15.7174 6.98047 12.2334 10.4645 12.2334 14.7469C12.2334 19.0293 15.7174 22.5133 19.9998 22.5133C24.2822 22.5133 27.7662 19.0293 27.7662 14.7469C27.7662 10.4645 24.2822 6.98047 19.9998 6.98047Z" fill="url(#paint1_linear)"/>
<path d="M16.5079 30.0456L12.3922 30.5424L10.2178 27.0137L9.47855 26.7617L6.29004 36.7278L12.0303 36.4121L16.5213 40.0012L19.1641 31.7409L16.5079 30.0456Z" fill="url(#paint2_linear)"/>
<path d="M29.7823 27.0138L27.6077 30.5424L23.4922 30.0456L20.8359 31.7409L23.4788 40.0012L27.9698 36.4121L33.71 36.7278L30.5215 26.7617L29.7823 27.0138Z" fill="url(#paint3_linear)"/>
</g>
<defs>
<linearGradient id="paint0_linear" x1="20" y1="-3.45998e-05" x2="20" y2="29.4913" gradientUnits="userSpaceOnUse">
<stop stop-color="#EFEE0E"/>
<stop offset="0.999999" stop-color="#F57E13"/>
<stop offset="1" stop-color="#F57E13"/>
</linearGradient>
<linearGradient id="paint1_linear" x1="19.9998" y1="6.98045" x2="19.9998" y2="22.5134" gradientUnits="userSpaceOnUse">
<stop stop-color="#EFEE0E"/>
<stop offset="0.999999" stop-color="#F57E13"/>
<stop offset="1" stop-color="#F57E13"/>
</linearGradient>
<linearGradient id="paint2_linear" x1="12.7271" y1="26.7617" x2="12.7271" y2="40.0013" gradientUnits="userSpaceOnUse">
<stop stop-color="#EFEE0E"/>
<stop offset="0.999999" stop-color="#F57E13"/>
<stop offset="1" stop-color="#F57E13"/>
</linearGradient>
<linearGradient id="paint3_linear" x1="27.273" y1="26.7617" x2="27.273" y2="40.0013" gradientUnits="userSpaceOnUse">
<stop stop-color="#EFEE0E"/>
<stop offset="0.999999" stop-color="#F57E13"/>
<stop offset="1" stop-color="#F57E13"/>
</linearGradient>
<clipPath id="clip0">
<rect width="40" height="40" fill="white"/>
</clipPath>
</defs>
</svg>
