<svg width="40" height="40" viewBox="0 0 40 40" fill="none" xmlns="http://www.w3.org/2000/svg">
<g clip-path="url(#clip0)">
<path d="M20.5901 27.035V26.8791C19.7936 26.8705 19.0318 26.8272 18.296 26.7666C17.8977 27.7968 17.335 28.7577 16.6338 29.6148C17.9583 29.8312 19.3002 29.9524 20.642 29.9697L20.5901 27.035Z" fill="url(#paint0_linear)"/>
<path d="M17.0846 21.3014C16.4439 18.2367 14.1844 15.7435 11.1804 14.7999C10.3493 14.5488 9.49224 14.4189 8.62653 14.4189C6.47956 14.4276 4.40184 15.2241 2.81758 16.6611C-0.705875 19.8643 -0.956932 25.327 2.24621 28.8504C5.44936 32.3739 10.912 32.6249 14.4355 29.4218C16.2362 27.7856 17.2664 25.4741 17.2577 23.0415C17.2577 22.4614 17.1971 21.8727 17.0846 21.3014ZM8.62653 21.8814C10.0896 21.8814 11.3795 22.851 11.7777 24.2621C12.2625 26.0022 11.2583 27.8029 9.50956 28.2964V29.0582C9.50956 29.5343 9.11999 29.9239 8.64384 29.9239C8.1677 29.9239 7.77813 29.5343 7.77813 29.0582V28.305C6.3497 27.9154 5.36278 26.6255 5.35413 25.1452C5.35413 24.669 5.7437 24.2794 6.21984 24.2794C6.69599 24.2794 7.08556 24.669 7.08556 25.1452C7.08556 25.9936 7.77813 26.6775 8.62653 26.6775C9.47493 26.6775 10.1588 25.9849 10.1588 25.1365C10.1588 24.2881 9.46627 23.6042 8.61787 23.6042C7.1375 23.6042 5.84759 22.6086 5.46667 21.1802C5.00784 19.4487 6.0467 17.6481 7.78679 17.1806V16.8083C7.78679 16.3322 8.17636 15.9426 8.6525 15.9426C9.12864 15.9426 9.51822 16.3322 9.51822 16.8083V17.1979C10.9293 17.5961 11.8989 18.886 11.8989 20.3491C11.8989 20.8252 11.5094 21.2148 11.0332 21.2148C10.5571 21.2148 10.1675 20.8252 10.1675 20.3491C10.1675 19.5007 9.47493 18.8081 8.62653 18.8081C7.77813 18.8081 7.09421 19.492 7.08556 20.3491C7.08556 21.1975 7.77813 21.8814 8.62653 21.8814Z" fill="url(#paint1_linear)"/>
<path d="M20.5648 25.1379L20.5128 22.0733C19.9761 22.0646 19.448 22.0473 18.9459 22.0127C18.9718 22.359 18.9892 22.6966 18.9892 23.0342C18.9892 23.7095 18.9199 24.3934 18.79 25.06C19.3614 25.112 19.9588 25.1379 20.5648 25.1379Z" fill="url(#paint2_linear)"/>
<path d="M30.0435 10.8125C29.4462 11.1242 28.8142 11.3752 28.1649 11.5657C26.217 12.1544 23.6632 12.4747 20.9968 12.4747C18.4429 12.4747 16.0103 12.1803 14.1317 11.6349C13.4824 11.4618 12.8591 11.2194 12.2617 10.9164L12.3223 13.3577C13.3006 13.7213 14.2096 14.2407 15.032 14.89C15.058 14.8987 15.0753 14.8987 15.1013 14.9073C16.7634 15.3315 18.8585 15.5566 20.9968 15.5566C23.4727 15.5566 25.9054 15.245 27.6628 14.7169C29.5414 14.1455 29.9569 13.5482 29.9569 13.4356C29.9569 13.3144 29.9483 13.2019 30.0435 13.0807V10.8125Z" fill="url(#paint3_linear)"/>
<path d="M27.6548 7.37392C25.8974 6.83718 23.4647 6.53418 20.9888 6.53418C18.4955 6.53418 16.1581 6.83718 14.4093 7.37392C12.5827 7.92798 12.1844 8.47338 12.1758 8.64652C12.1758 8.64652 12.1844 8.64652 12.1844 8.66384C12.2277 8.85429 12.7472 9.44298 14.6084 9.97972C16.3312 10.4818 18.5994 10.7589 20.9888 10.7589C23.4647 10.7589 25.8887 10.4559 27.6461 9.92778C29.5247 9.36507 29.9489 8.76772 29.9489 8.64652C29.9489 8.53398 29.5334 7.94529 27.6548 7.37392Z" fill="url(#paint4_linear)"/>
<path d="M39.9824 31.3296V28.7324C39.4024 29.0268 38.7964 29.2778 38.1644 29.4683C36.2252 30.057 33.6887 30.3773 31.0136 30.3773C28.6415 30.3773 26.3301 30.1089 24.5121 29.6328C23.7676 29.4423 23.049 29.1826 22.3564 28.845L22.3997 31.3555C22.3997 31.3642 22.3997 31.3642 22.3997 31.3729C22.3997 31.5027 22.7806 32.0827 24.6073 32.6455C26.3387 33.1735 28.6762 33.4679 31.1781 33.4679C33.6713 33.4679 36.0174 33.1649 37.7662 32.6195C39.5928 32.0481 39.9911 31.4508 39.9911 31.3296H39.9824Z" fill="url(#paint5_linear)"/>
<path d="M30.027 15.6426C29.4297 15.9456 28.8064 16.1966 28.1571 16.3871C26.2092 16.9758 23.6553 17.2961 20.9803 17.2961C19.6644 17.2961 18.3572 17.2095 17.0586 17.045C17.7598 18.0146 18.2793 19.1054 18.6082 20.2655C19.3527 20.3175 20.1579 20.3521 20.9889 20.3521C21.0149 20.3521 21.0495 20.3521 21.0755 20.3521C22.4953 18.7938 26.3131 18.0146 30.027 17.9108V15.6426Z" fill="url(#paint6_linear)"/>
<path d="M38.1046 24.6782C36.174 25.2496 33.6634 25.5613 31.0317 25.5613C28.4778 25.5613 26.0452 25.2669 24.1666 24.7215C23.5173 24.5397 22.8853 24.2973 22.2793 23.9943L22.3139 25.9855L22.3226 26.7127C22.9978 27.5524 26.227 28.6346 31.023 28.6346C33.5249 28.6346 35.8883 28.3402 37.663 27.8035C39.533 27.2321 39.9399 26.6434 39.9399 26.5222C39.9399 26.427 39.9918 26.3231 39.9918 26.2365H40.0005V23.9424C39.3945 24.2454 38.7625 24.5051 38.1046 24.6782Z" fill="url(#paint7_linear)"/>
<path d="M37.6968 20.4797C35.9307 19.9429 33.5067 19.6572 31.0307 19.6572H30.8836C28.5808 19.6572 26.3905 19.9169 24.711 20.3931C22.919 20.8952 22.3043 21.4666 22.2264 21.7003C22.2178 21.7176 22.2178 21.7263 22.2178 21.7349C22.2178 21.7349 22.2178 21.7349 22.2351 21.7696C22.287 21.9514 22.7978 22.5401 24.6591 23.0855C26.3819 23.5789 28.65 23.8559 31.0394 23.8559C33.5067 23.8559 35.8441 23.5703 37.6188 23.0422C39.5407 22.4708 39.9736 21.8735 39.9822 21.7436V21.7349C39.9736 21.6051 39.5407 21.0337 37.6968 20.4797Z" fill="url(#paint8_linear)"/>
</g>
<defs>
<linearGradient id="paint0_linear" x1="18.6379" y1="26.7666" x2="18.6379" y2="29.9698" gradientUnits="userSpaceOnUse">
<stop stop-color="#EFEE0E"/>
<stop offset="0.999999" stop-color="#F57E13"/>
<stop offset="1" stop-color="#F57E13"/>
</linearGradient>
<linearGradient id="paint1_linear" x1="8.62888" y1="14.4189" x2="8.62888" y2="31.6681" gradientUnits="userSpaceOnUse">
<stop stop-color="#EFEE0E"/>
<stop offset="0.999999" stop-color="#F57E13"/>
<stop offset="1" stop-color="#F57E13"/>
</linearGradient>
<linearGradient id="paint2_linear" x1="19.6774" y1="22.0127" x2="19.6774" y2="25.138" gradientUnits="userSpaceOnUse">
<stop stop-color="#EFEE0E"/>
<stop offset="0.999999" stop-color="#F57E13"/>
<stop offset="1" stop-color="#F57E13"/>
</linearGradient>
<linearGradient id="paint3_linear" x1="21.1526" y1="10.8125" x2="21.1526" y2="15.5567" gradientUnits="userSpaceOnUse">
<stop stop-color="#EFEE0E"/>
<stop offset="0.999999" stop-color="#F57E13"/>
<stop offset="1" stop-color="#F57E13"/>
</linearGradient>
<linearGradient id="paint4_linear" x1="21.0623" y1="6.53417" x2="21.0623" y2="10.7589" gradientUnits="userSpaceOnUse">
<stop stop-color="#EFEE0E"/>
<stop offset="0.999999" stop-color="#F57E13"/>
<stop offset="1" stop-color="#F57E13"/>
</linearGradient>
<linearGradient id="paint5_linear" x1="31.1738" y1="28.7324" x2="31.1738" y2="33.4679" gradientUnits="userSpaceOnUse">
<stop stop-color="#EFEE0E"/>
<stop offset="0.999999" stop-color="#F57E13"/>
<stop offset="1" stop-color="#F57E13"/>
</linearGradient>
<linearGradient id="paint6_linear" x1="23.5428" y1="15.6426" x2="23.5428" y2="20.3521" gradientUnits="userSpaceOnUse">
<stop stop-color="#EFEE0E"/>
<stop offset="0.999999" stop-color="#F57E13"/>
<stop offset="1" stop-color="#F57E13"/>
</linearGradient>
<linearGradient id="paint7_linear" x1="31.1399" y1="23.9424" x2="31.1399" y2="28.6346" gradientUnits="userSpaceOnUse">
<stop stop-color="#EFEE0E"/>
<stop offset="0.999999" stop-color="#F57E13"/>
<stop offset="1" stop-color="#F57E13"/>
</linearGradient>
<linearGradient id="paint8_linear" x1="31.1" y1="19.6572" x2="31.1" y2="23.856" gradientUnits="userSpaceOnUse">
<stop stop-color="#EFEE0E"/>
<stop offset="0.999999" stop-color="#F57E13"/>
<stop offset="1" stop-color="#F57E13"/>
</linearGradient>
<clipPath id="clip0">
<rect width="40" height="40" fill="white"/>
</clipPath>
</defs>
</svg>
