<svg width="56" height="56" viewBox="0 0 56 56" fill="none" xmlns="http://www.w3.org/2000/svg">
<circle r="27.5" transform="matrix(1 0 0 -1 28 28)" stroke="url(#paint0_linear)"/>
<g clip-path="url(#clip0)">
<path d="M38.6632 25.5882C38.6993 21.3585 35.0969 17.4811 30.6329 16.9449C30.5441 16.9344 30.4474 16.9184 30.345 16.9014C30.124 16.8648 29.8955 16.8271 29.6649 16.8271C28.75 16.8271 28.5054 17.4698 28.4411 17.8531C28.3784 18.2258 28.4382 18.5387 28.6183 18.7837C28.9212 19.1957 29.4543 19.2688 29.8825 19.3274C30.008 19.3447 30.1265 19.3608 30.2256 19.3831C34.2363 20.2793 35.5867 21.6883 36.2467 25.6649C36.2629 25.762 36.2701 25.8817 36.2779 26.0087C36.3066 26.4841 36.3666 27.473 37.4299 27.473H37.43C37.5185 27.473 37.6136 27.4654 37.7126 27.4503C38.7027 27.2999 38.6717 26.3958 38.6568 25.9615C38.6526 25.8392 38.6486 25.7235 38.6589 25.6465C38.6617 25.6271 38.6631 25.6076 38.6632 25.5882Z" fill="url(#paint1_linear)"/>
<path d="M29.4052 15.3933C29.524 15.4019 29.6364 15.4101 29.73 15.4244C36.316 16.4372 39.3448 19.5576 40.1841 26.1951C40.1984 26.3079 40.2006 26.4455 40.2029 26.5912C40.2113 27.1098 40.2286 28.1886 41.3871 28.2109L41.4231 28.2113C41.7864 28.2113 42.0754 28.1017 42.2822 27.8854C42.6428 27.5082 42.6177 26.9478 42.5973 26.4974C42.5924 26.3869 42.5877 26.2828 42.5889 26.1917C42.6726 19.4033 36.7965 13.2476 30.0142 13.0187C29.9861 13.0178 29.9592 13.0193 29.9321 13.0231C29.9188 13.0251 29.8941 13.0275 29.8518 13.0275C29.7842 13.0275 29.701 13.0216 29.6127 13.0157C29.5061 13.0084 29.3851 13 29.2625 13C28.1824 13 27.9771 13.7677 27.9508 14.2253C27.8903 15.283 28.9134 15.3574 29.4052 15.3933Z" fill="url(#paint2_linear)"/>
<path d="M39.8663 34.7747C39.7263 34.6677 39.5815 34.557 39.446 34.4478C38.7269 33.8692 37.9619 33.3358 37.222 32.8199C37.0685 32.713 36.915 32.6059 36.762 32.4986C35.8143 31.8329 34.9623 31.5094 34.1573 31.5094C33.0731 31.5094 32.1278 32.1085 31.3476 33.2898C31.002 33.8135 30.5826 34.0681 30.0658 34.0681C29.7602 34.0681 29.413 33.9809 29.0339 33.8088C25.9749 32.4216 23.7906 30.2948 22.5415 27.4874C21.9377 26.1305 22.1334 25.2435 23.1961 24.5217C23.7996 24.1121 24.9228 23.3496 24.8432 21.8895C24.7531 20.2314 21.0946 15.2423 19.5532 14.6757C18.9005 14.4357 18.2148 14.4335 17.5114 14.6701C15.7393 15.2658 14.4677 16.312 13.8336 17.6953C13.2208 19.032 13.2485 20.6015 13.9136 22.2342C15.8364 26.9546 18.5398 31.0702 21.9489 34.4665C25.2858 37.7911 29.3871 40.5144 34.1388 42.5604C34.5671 42.7447 35.0164 42.8452 35.3444 42.9185C35.4562 42.9437 35.5528 42.9651 35.6231 42.9844C35.6618 42.9949 35.7016 43.0006 35.7416 43.001L35.7792 43.0012C35.7792 43.0012 35.7792 43.0012 35.7793 43.0012C38.0142 43.0012 40.6978 40.959 41.5219 38.6307C42.244 36.592 40.9256 35.5843 39.8663 34.7747Z" fill="url(#paint3_linear)"/>
<path d="M30.3936 20.786C30.011 20.7957 29.2147 20.8154 28.9352 21.6264C28.8045 22.0054 28.8202 22.3345 28.9818 22.6045C29.219 23.0007 29.6735 23.1221 30.0869 23.1887C31.5861 23.4292 32.356 24.2582 32.51 25.7974C32.5815 26.515 33.0648 27.0162 33.6853 27.0162H33.6854C33.7312 27.0162 33.7781 27.0135 33.8248 27.0078C34.5711 26.919 34.9328 26.3707 34.9001 25.3783C34.912 24.3426 34.37 23.1667 33.4481 22.2301C32.523 21.2906 31.4079 20.7615 30.3936 20.786Z" fill="url(#paint4_linear)"/>
</g>
<defs>
<linearGradient id="paint0_linear" x1="28" y1="-6.57009e-05" x2="28" y2="56.0004" gradientUnits="userSpaceOnUse">
<stop stop-color="#EFEE0E"/>
<stop offset="0.999999" stop-color="#F57E13"/>
<stop offset="1" stop-color="#F57E13"/>
</linearGradient>
<linearGradient id="paint1_linear" x1="33.5402" y1="16.8271" x2="33.5402" y2="27.4731" gradientUnits="userSpaceOnUse">
<stop stop-color="#EFEE0E"/>
<stop offset="0.999999" stop-color="#F57E13"/>
<stop offset="1" stop-color="#F57E13"/>
</linearGradient>
<linearGradient id="paint2_linear" x1="35.2778" y1="13" x2="35.2778" y2="28.2114" gradientUnits="userSpaceOnUse">
<stop stop-color="#EFEE0E"/>
<stop offset="0.999999" stop-color="#F57E13"/>
<stop offset="1" stop-color="#F57E13"/>
</linearGradient>
<linearGradient id="paint3_linear" x1="27.5611" y1="14.4941" x2="27.5611" y2="43.0014" gradientUnits="userSpaceOnUse">
<stop stop-color="#EFEE0E"/>
<stop offset="0.999999" stop-color="#F57E13"/>
<stop offset="1" stop-color="#F57E13"/>
</linearGradient>
<linearGradient id="paint4_linear" x1="31.8749" y1="20.7851" x2="31.8749" y2="27.0162" gradientUnits="userSpaceOnUse">
<stop stop-color="#EFEE0E"/>
<stop offset="0.999999" stop-color="#F57E13"/>
<stop offset="1" stop-color="#F57E13"/>
</linearGradient>
<clipPath id="clip0">
<rect width="30" height="30" fill="white" transform="translate(13 13)"/>
</clipPath>
</defs>
</svg>
