<svg width="30" height="30" viewBox="0 0 30 30" fill="none" xmlns="http://www.w3.org/2000/svg">
<path d="M25.6066 4.40111C22.7735 1.56799 19.0066 0.0078125 15 0.0078125C12.5849 0.0078125 10.1842 0.595684 8.05752 1.70797C6.83121 2.34928 5.69479 3.16578 4.6875 4.11928V0.0078125H2.34375V8.21094H10.5469V5.86719H6.24973C8.58686 3.63623 11.723 2.35156 15 2.35156C21.9786 2.35156 27.6562 8.02906 27.6562 15.0078C27.6562 15.3963 27.6384 15.788 27.6035 16.172L29.9376 16.3846C29.979 15.9303 29.9999 15.4671 30 15.0079L28.8281 15.0078H30C30 11.0011 28.4397 7.23436 25.6066 4.40111Z" fill="#212121"/>
<path d="M5.13984 22.9434L3.31494 24.4141C3.8451 25.0719 4.4349 25.6892 5.06807 26.249L6.62045 24.4931C6.08572 24.0203 5.58756 23.499 5.13984 22.9434Z" fill="#212121"/>
<path d="M3.05969 19.2158L0.849121 19.9949C1.13002 20.7918 1.4817 21.5708 1.89455 22.3103L3.94099 21.1679C3.59289 20.5444 3.2964 19.8875 3.05969 19.2158Z" fill="#212121"/>
<path d="M2.34375 15.0078H0C0 15.8557 0.0714844 16.7062 0.212344 17.5358L2.52305 17.1434C2.40404 16.443 2.34375 15.7245 2.34375 15.0078Z" fill="#212121"/>
<path d="M8.33977 25.7715L7.10449 27.7633C7.8235 28.2092 8.58486 28.5962 9.36727 28.9134L10.2479 26.7414C9.58822 26.474 8.94621 26.1476 8.33977 25.7715Z" fill="#212121"/>
<path d="M27.2292 18.2803C27.0454 18.9686 26.8011 19.6462 26.5029 20.2938L28.6319 21.2739C28.9857 20.5055 29.2756 19.7016 29.4936 18.8847L27.2292 18.2803Z" fill="#212121"/>
<path d="M22.4739 25.2227C21.8978 25.645 21.2824 26.0205 20.645 26.3387L21.6919 28.4356C22.4475 28.0584 23.1768 27.6134 23.8595 27.113L22.4739 25.2227Z" fill="#212121"/>
<path d="M25.4464 22.1553C25.0431 22.7433 24.5867 23.3014 24.0898 23.8141L25.773 25.4452C26.3613 24.8381 26.9018 24.1771 27.3793 23.4807L25.4464 22.1553Z" fill="#212121"/>
<path d="M18.6542 27.1289C17.9726 27.3342 17.2677 27.4822 16.5591 27.5692L16.8446 29.8955C17.685 29.7923 18.5211 29.6166 19.3297 29.3732L18.6542 27.1289Z" fill="#212121"/>
<path d="M12.2923 27.374L11.7935 29.664C12.6169 29.8435 13.4637 29.9538 14.3102 29.9922L14.4162 27.6508C13.7015 27.6185 12.9869 27.5253 12.2923 27.374Z" fill="#212121"/>
</svg>
