<svg width="40" height="40" viewBox="0 0 40 40" fill="none" xmlns="http://www.w3.org/2000/svg">
<g clip-path="url(#clip0)">
<path d="M39.475 13.5646L20.725 0.23125C20.2917 -0.0770833 19.71 -0.0770833 19.2767 0.23125L0.526667 13.5646C0.196667 13.7979 0 14.1779 0 14.5829V20.4163C0 20.8846 0.261667 21.3129 0.676667 21.5279C1.09333 21.7413 1.59167 21.7063 1.97333 21.4363L3.33333 20.4679V38.3329C3.33333 39.2529 4.08 39.9996 5 39.9996H8.33333V19.9996H31.6667V39.9996H35C35.92 39.9996 36.6667 39.2529 36.6667 38.3329V20.4679L38.025 21.4346C38.2417 21.5879 38.495 21.6663 38.75 21.6663C38.9467 21.6663 39.1417 21.6196 39.3233 21.5279C39.7383 21.3129 40 20.8846 40 20.4163V14.5829C40 14.1779 39.8033 13.7979 39.475 13.5646Z" fill="url(#paint0_linear)"/>
<path d="M10.8335 35.833H29.1668V39.9997H10.8335V35.833Z" fill="url(#paint1_linear)"/>
<path d="M10.8335 29.167H29.1668V33.3336H10.8335V29.167Z" fill="url(#paint2_linear)"/>
<path d="M10.8335 22.5H29.1668V26.6667H10.8335V22.5Z" fill="url(#paint3_linear)"/>
</g>
<defs>
<linearGradient id="paint0_linear" x1="20" y1="-4.69287e-05" x2="20" y2="39.9999" gradientUnits="userSpaceOnUse">
<stop stop-color="#EFEE0E"/>
<stop offset="0.999999" stop-color="#F57E13"/>
<stop offset="1" stop-color="#F57E13"/>
</linearGradient>
<linearGradient id="paint1_linear" x1="20.0002" y1="35.833" x2="20.0002" y2="39.9997" gradientUnits="userSpaceOnUse">
<stop stop-color="#EFEE0E"/>
<stop offset="0.999999" stop-color="#F57E13"/>
<stop offset="1" stop-color="#F57E13"/>
</linearGradient>
<linearGradient id="paint2_linear" x1="20.0002" y1="29.167" x2="20.0002" y2="33.3337" gradientUnits="userSpaceOnUse">
<stop stop-color="#EFEE0E"/>
<stop offset="0.999999" stop-color="#F57E13"/>
<stop offset="1" stop-color="#F57E13"/>
</linearGradient>
<linearGradient id="paint3_linear" x1="20.0002" y1="22.5" x2="20.0002" y2="26.6667" gradientUnits="userSpaceOnUse">
<stop stop-color="#EFEE0E"/>
<stop offset="0.999999" stop-color="#F57E13"/>
<stop offset="1" stop-color="#F57E13"/>
</linearGradient>
<clipPath id="clip0">
<rect width="40" height="40" fill="white"/>
</clipPath>
</defs>
</svg>
