<svg width="56" height="56" viewBox="0 0 56 56" fill="none" xmlns="http://www.w3.org/2000/svg">
<circle r="27.5" transform="matrix(1 0 0 -1 28 28)" stroke="url(#paint0_linear)"/>
<path d="M40.1875 40.1875C40.1875 40.3118 40.1381 40.431 40.0502 40.519C39.9623 40.6069 39.8431 40.6562 39.7188 40.6562H15.8125V41.5938H41.125V18.1562H40.1875V40.1875Z" fill="url(#paint1_linear)"/>
<path d="M39.25 22.8438H14.875V39.7188H39.25V22.8438ZM33.625 32.2188C33.625 32.3307 33.5849 32.439 33.512 32.524C33.4391 32.609 33.3382 32.665 33.2275 32.6821L33.1562 32.693V36.9062C33.1562 37.0306 33.1069 37.1498 33.019 37.2377C32.931 37.3256 32.8118 37.375 32.6875 37.375H21.4375C21.3132 37.375 21.194 37.3256 21.106 37.2377C21.0181 37.1498 20.9688 37.0306 20.9688 36.9062V32.693L20.8975 32.6821C20.7868 32.665 20.6859 32.609 20.613 32.524C20.5401 32.439 20.5 32.3307 20.5 32.2188V27.5312C20.5 27.4069 20.5494 27.2877 20.6373 27.1998C20.7252 27.1119 20.8444 27.0625 20.9688 27.0625H24.25V26.5938C24.2504 26.2209 24.3987 25.8635 24.6623 25.5998C24.926 25.3362 25.2834 25.1879 25.6562 25.1875H28.4688C28.8416 25.1879 29.199 25.3362 29.4627 25.5998C29.7263 25.8635 29.8746 26.2209 29.875 26.5938V27.0625H33.1562C33.2806 27.0625 33.3998 27.1119 33.4877 27.1998C33.5756 27.2877 33.625 27.4069 33.625 27.5312V32.2188Z" fill="url(#paint2_linear)"/>
<path d="M21.4375 31.8166L25.6562 32.4656V32.2188C25.6562 32.0944 25.7056 31.9752 25.7935 31.8873C25.8815 31.7994 26.0007 31.75 26.125 31.75H28C28.1243 31.75 28.2435 31.7994 28.3315 31.8873C28.4194 31.9752 28.4688 32.0944 28.4688 32.2188V32.4656L32.6875 31.8166V28H21.4375V31.8166Z" fill="url(#paint3_linear)"/>
<path d="M27.5312 32.6875H26.5938V33.625H27.5312V32.6875Z" fill="url(#paint4_linear)"/>
<path d="M28.4688 34.0935C28.4688 34.2178 28.4194 34.3371 28.3315 34.425C28.2435 34.5129 28.1243 34.5623 28 34.5623H26.125C26.0007 34.5623 25.8815 34.5129 25.7935 34.425C25.7056 34.3371 25.6562 34.2178 25.6562 34.0935V33.4138L21.9062 32.8369V36.4373H32.2188V32.837L28.4688 33.4138V34.0935Z" fill="url(#paint5_linear)"/>
<path d="M28.9375 26.5938C28.9374 26.4695 28.8879 26.3503 28.8001 26.2624C28.7122 26.1746 28.593 26.1251 28.4688 26.125H25.6562C25.532 26.1251 25.4128 26.1746 25.3249 26.2624C25.2371 26.3503 25.1876 26.4695 25.1875 26.5938V27.0625H28.9375V26.5938Z" fill="url(#paint6_linear)"/>
<path d="M34.5625 17.2188V15.8125C34.5625 15.6882 34.6119 15.569 34.6998 15.481C34.7877 15.3931 34.9069 15.3438 35.0312 15.3438C35.1556 15.3438 35.2748 15.3931 35.3627 15.481C35.4506 15.569 35.5 15.6882 35.5 15.8125V16.2812H36.4375V15.8125C36.4375 15.4395 36.2893 15.0819 36.0256 14.8181C35.7619 14.5544 35.4042 14.4063 35.0312 14.4063C34.6583 14.4063 34.3006 14.5544 34.0369 14.8181C33.7732 15.0819 33.625 15.4395 33.625 15.8125V17.2188H30.8125V15.8125C30.8125 15.6882 30.8619 15.569 30.9498 15.481C31.0377 15.3931 31.1569 15.3438 31.2812 15.3438C31.4056 15.3438 31.5248 15.3931 31.6127 15.481C31.7006 15.569 31.75 15.6882 31.75 15.8125V16.2812H32.6875V15.8125C32.6875 15.4395 32.5393 15.0819 32.2756 14.8181C32.0119 14.5544 31.6542 14.4062 31.2812 14.4062C30.9083 14.4062 30.5506 14.5544 30.2869 14.8181C30.0232 15.0819 29.875 15.4395 29.875 15.8125V17.2188H22.375V15.8125C22.375 15.6882 22.4244 15.569 22.5123 15.481C22.6002 15.3931 22.7194 15.3438 22.8438 15.3438C22.9681 15.3438 23.0873 15.3931 23.1752 15.481C23.2631 15.569 23.3125 15.6882 23.3125 15.8125V16.2812H24.25V15.8125C24.25 15.4395 24.1018 15.0819 23.8381 14.8181C23.5744 14.5544 23.2167 14.4062 22.8438 14.4062C22.4708 14.4062 22.1131 14.5544 21.8494 14.8181C21.5857 15.0819 21.4375 15.4395 21.4375 15.8125V17.2188H18.625V15.8125C18.625 15.6882 18.6744 15.569 18.7623 15.481C18.8502 15.3931 18.9694 15.3438 19.0938 15.3438C19.2181 15.3438 19.3373 15.3931 19.4252 15.481C19.5131 15.569 19.5625 15.6882 19.5625 15.8125V16.2812H20.5V15.8125C20.5 15.4395 20.3518 15.0819 20.0881 14.8181C19.8244 14.5544 19.4667 14.4062 19.0938 14.4062C18.7208 14.4062 18.3631 14.5544 18.0994 14.8181C17.8357 15.0819 17.6875 15.4395 17.6875 15.8125V17.2188H14.875V21.9062H39.25V17.2188H34.5625Z" fill="url(#paint7_linear)"/>
<defs>
<linearGradient id="paint0_linear" x1="28" y1="-6.57009e-05" x2="28" y2="56.0004" gradientUnits="userSpaceOnUse">
<stop stop-color="#EFEE0E"/>
<stop offset="0.999999" stop-color="#F57E13"/>
<stop offset="1" stop-color="#F57E13"/>
</linearGradient>
<linearGradient id="paint1_linear" x1="28.4688" y1="18.1562" x2="28.4688" y2="41.5939" gradientUnits="userSpaceOnUse">
<stop stop-color="#EFEE0E"/>
<stop offset="0.999999" stop-color="#F57E13"/>
<stop offset="1" stop-color="#F57E13"/>
</linearGradient>
<linearGradient id="paint2_linear" x1="27.0625" y1="22.8437" x2="27.0625" y2="39.7189" gradientUnits="userSpaceOnUse">
<stop stop-color="#EFEE0E"/>
<stop offset="0.999999" stop-color="#F57E13"/>
<stop offset="1" stop-color="#F57E13"/>
</linearGradient>
<linearGradient id="paint3_linear" x1="27.0625" y1="28" x2="27.0625" y2="32.4656" gradientUnits="userSpaceOnUse">
<stop stop-color="#EFEE0E"/>
<stop offset="0.999999" stop-color="#F57E13"/>
<stop offset="1" stop-color="#F57E13"/>
</linearGradient>
<linearGradient id="paint4_linear" x1="27.0625" y1="32.6875" x2="27.0625" y2="33.625" gradientUnits="userSpaceOnUse">
<stop stop-color="#EFEE0E"/>
<stop offset="0.999999" stop-color="#F57E13"/>
<stop offset="1" stop-color="#F57E13"/>
</linearGradient>
<linearGradient id="paint5_linear" x1="27.0625" y1="32.8369" x2="27.0625" y2="36.4373" gradientUnits="userSpaceOnUse">
<stop stop-color="#EFEE0E"/>
<stop offset="0.999999" stop-color="#F57E13"/>
<stop offset="1" stop-color="#F57E13"/>
</linearGradient>
<linearGradient id="paint6_linear" x1="27.0625" y1="26.125" x2="27.0625" y2="27.0625" gradientUnits="userSpaceOnUse">
<stop stop-color="#EFEE0E"/>
<stop offset="0.999999" stop-color="#F57E13"/>
<stop offset="1" stop-color="#F57E13"/>
</linearGradient>
<linearGradient id="paint7_linear" x1="27.0625" y1="14.4062" x2="27.0625" y2="21.9063" gradientUnits="userSpaceOnUse">
<stop stop-color="#EFEE0E"/>
<stop offset="0.999999" stop-color="#F57E13"/>
<stop offset="1" stop-color="#F57E13"/>
</linearGradient>
</defs>
</svg>
