<svg width="28" height="28" viewBox="0 0 28 28" fill="none" xmlns="http://www.w3.org/2000/svg">
<path d="M19.8665 0H8.13356C3.64869 0 0 3.64869 0 8.13356V19.8664C0 24.3513 3.64869 28 8.13356 28H19.8664C24.3513 28 28 24.3513 28 19.8665V8.13356C28 3.64869 24.3513 0 19.8665 0ZM25.8125 19.8664C25.8125 23.1451 23.1451 25.8125 19.8665 25.8125H8.13356C4.85488 25.8125 2.1875 23.1451 2.1875 19.8665V8.13356C2.1875 4.85488 4.85488 2.1875 8.13356 2.1875H19.8664C23.1451 2.1875 25.8125 4.85488 25.8125 8.13356V19.8664Z" fill="#1A1A1A"/>
<path d="M14 6.45312C9.83861 6.45312 6.45312 9.83861 6.45312 14C6.45312 18.1614 9.83861 21.5469 14 21.5469C18.1614 21.5469 21.5469 18.1614 21.5469 14C21.5469 9.83861 18.1614 6.45312 14 6.45312ZM14 19.3594C11.0449 19.3594 8.64062 16.9551 8.64062 14C8.64062 11.0449 11.0449 8.64062 14 8.64062C16.9551 8.64062 19.3594 11.0449 19.3594 14C19.3594 16.9551 16.9551 19.3594 14 19.3594Z" fill="#1A1A1A"/>
<path d="M21.6562 7.4375C22.2603 7.4375 22.75 6.94781 22.75 6.34375C22.75 5.73969 22.2603 5.25 21.6562 5.25C21.0522 5.25 20.5625 5.73969 20.5625 6.34375C20.5625 6.94781 21.0522 7.4375 21.6562 7.4375Z" fill="#1A1A1A"/>
</svg>
