<svg width="34" height="34" viewBox="0 0 34 34" fill="none" xmlns="http://www.w3.org/2000/svg">
<path d="M33.3075 9.12234C32.8222 7.32819 31.4052 5.91374 29.6138 5.4321C27.0627 4.73496 18.0223 4.71484 16.9999 4.71484C15.9781 4.71484 6.94387 4.73417 4.3986 5.40294C4.39402 5.4042 4.3895 5.4054 4.38499 5.40666C2.61985 5.8905 1.17001 7.35056 0.69122 9.12613C0.690622 9.12858 0.689958 9.13098 0.689294 9.13343C0.00783591 11.7193 0 16.7855 0 17C0 17.2154 0.00783591 22.3079 0.691286 24.8738C1.17552 26.6698 2.59329 28.0858 4.38944 28.5687C6.964 29.2649 15.9803 29.2851 16.9999 29.2851C18.0217 29.2851 27.0559 29.2657 29.6012 28.5968C29.6036 28.5962 29.606 28.5956 29.6084 28.5949C31.4065 28.1115 32.8243 26.6955 33.3086 24.8995C33.3092 24.8971 33.3098 24.8946 33.3105 24.8922C33.9883 22.3203 33.9997 17.2945 33.9998 17.0296C34.001 16.7756 34.0155 11.7073 33.3075 9.12234ZM31.3434 17.0258C31.3434 18.3896 31.2355 22.3373 30.7429 24.2116C30.5036 25.094 29.8065 25.7899 28.9222 26.0289C27.0409 26.5208 19.6794 26.6288 16.9999 26.6288C14.3273 26.6288 6.97641 26.5167 5.08099 26.0041C4.19387 25.7656 3.49462 25.0675 3.25695 24.1862C2.66394 21.9598 2.65624 17.0492 2.65624 17C2.65624 15.6362 2.76415 11.6893 3.25668 9.81476C3.49515 8.93455 4.21041 8.21139 5.08072 7.97013C6.96765 7.47899 14.3219 7.37115 16.9999 7.37108C19.6791 7.37108 27.0424 7.48304 28.9187 7.99583C29.8058 8.2343 30.5051 8.93242 30.7438 9.81768C30.7442 9.81941 30.7448 9.8212 30.7452 9.82293C31.2556 11.6852 31.3501 15.6491 31.3434 17.0258Z" fill="#1A1A1A"/>
<path d="M12.6226 10.0166V23.9826L24.7066 16.9996L12.6226 10.0166ZM15.2788 14.6194L19.3978 16.9997L15.2788 19.3799V14.6194Z" fill="#1A1A1A"/>
</svg>
