<svg width="102" height="127" viewBox="0 0 102 127" fill="none" xmlns="http://www.w3.org/2000/svg">
<path d="M101.575 109.726L94.3063 27.8792C94.1506 26.0621 92.619 24.6863 90.8279 24.6863H75.876C75.6683 11.0323 64.5062 0 50.8003 0C37.0943 0 25.9323 11.0323 25.7246 24.6863H10.7727C8.9556 24.6863 7.45002 26.0621 7.29427 27.8792L0.0259588 109.726C0.0259588 109.829 0 109.933 0 110.037C0 119.356 8.54026 126.936 19.0534 126.936H82.5472C93.0603 126.936 101.601 119.356 101.601 110.037C101.601 109.933 101.601 109.829 101.575 109.726ZM50.8003 7.00873C60.6385 7.00873 68.6596 14.9 68.8672 24.6863H32.7333C32.941 14.9 40.9621 7.00873 50.8003 7.00873ZM82.5472 119.927H19.0534C12.46 119.927 7.11256 115.566 7.00873 110.193L13.9655 31.721H25.6987V42.3639C25.6987 44.3107 27.2562 45.8682 29.203 45.8682C31.1499 45.8682 32.7074 44.3107 32.7074 42.3639V31.721H68.8672V42.3639C68.8672 44.3107 70.4247 45.8682 72.3716 45.8682C74.3185 45.8682 75.876 44.3107 75.876 42.3639V31.721H87.6091L94.5919 110.193C94.488 115.566 89.1147 119.927 82.5472 119.927Z" fill="#C4C4C4"/>
</svg>
