<svg width="16" height="16" viewBox="0 0 16 16" fill="none" xmlns="http://www.w3.org/2000/svg">
<g clip-path="url(#clip0)">
<path d="M12.0394 3.80991L5.45911 7.86272C5.08674 8.0926 4.91052 8.54663 5.03049 8.96657L5.74199 11.4666C5.80277 11.6797 5.99246 11.8214 6.21071 11.8214C6.22286 11.8214 6.23514 11.821 6.24746 11.8201C6.48077 11.8031 6.66539 11.6293 6.69643 11.3977L6.88143 10.0269C6.90636 9.84247 6.99524 9.67091 7.13146 9.5441L12.5616 4.49647C12.7257 4.34432 12.7474 4.09516 12.6122 3.91694C12.4767 3.73857 12.2307 3.69244 12.0394 3.80991ZM6.69727 9.07738C6.45327 9.3045 6.2943 9.61141 6.24967 9.9416L6.15996 10.6065L5.64349 8.79178C5.60152 8.64478 5.66333 8.48582 5.79364 8.40538L10.6142 5.43641L6.69727 9.07738Z" fill="white"/>
<path d="M15.7397 1.16777C15.5341 0.993516 15.2504 0.945547 14.9991 1.04261L0.471259 6.64705C0.18354 6.75802 -0.00146007 7.02892 8.68175e-06 7.3372C0.00150868 7.64577 0.189227 7.91517 0.478634 8.02361L3.87207 9.29014L5.19579 13.5472C5.26848 13.7812 5.45195 13.963 5.68651 14.0336C5.92095 14.1041 6.17413 14.0537 6.36338 13.8989L8.33651 12.2904C8.43126 12.2131 8.56657 12.2093 8.66551 12.2812L12.2244 14.865C12.3524 14.958 12.5035 15.0059 12.6563 15.0059C12.7459 15.0059 12.836 14.9895 12.9225 14.956C13.1564 14.8656 13.3265 14.665 13.3775 14.4197L15.9846 1.8788C16.0394 1.61473 15.9455 1.3423 15.7397 1.16777ZM15.3605 1.74927L12.7534 14.2901C12.7439 14.3355 12.7113 14.3543 12.6927 14.3615C12.6739 14.3688 12.6369 14.3768 12.599 14.3492L9.04007 11.7653C8.88098 11.6498 8.69392 11.5925 8.5072 11.5925C8.30351 11.5925 8.1001 11.6608 7.93385 11.7962L5.96029 13.4051C5.92517 13.4339 5.8887 13.4287 5.87013 13.4231C5.85145 13.4175 5.8181 13.4016 5.80454 13.358L4.43438 8.95152C4.4051 8.85736 4.33385 8.78205 4.24148 8.74755L0.701946 7.42652C0.648946 7.40667 0.637665 7.36533 0.637509 7.33411C0.637352 7.30317 0.648227 7.26202 0.700727 7.24177L15.2286 1.63736C15.2287 1.63733 15.2288 1.6373 15.2289 1.63727C15.2761 1.61905 15.311 1.63998 15.3276 1.65405C15.3443 1.66827 15.3709 1.69952 15.3605 1.74927Z" fill="white"/>
<path d="M13.3587 7.8794C13.1866 7.84203 13.0169 7.95124 12.9796 8.12327L12.9311 8.34639C12.8938 8.51842 13.003 8.68814 13.175 8.72548C13.1978 8.73042 13.2205 8.7328 13.243 8.7328C13.3897 8.7328 13.5217 8.63086 13.5541 8.48164L13.6026 8.25852C13.6399 8.08649 13.5307 7.91678 13.3587 7.8794Z" fill="white"/>
<path d="M13.0399 9.34716C12.8677 9.30982 12.6981 9.41901 12.6608 9.59104L11.9277 12.9676C11.8904 13.1397 11.9996 13.3094 12.1716 13.3467C12.1944 13.3517 12.2171 13.354 12.2395 13.354C12.3863 13.354 12.5183 13.2521 12.5507 13.1029L13.2838 9.72626C13.3211 9.55423 13.2119 9.38451 13.0399 9.34716Z" fill="white"/>
</g>
<defs>
<clipPath id="clip0">
<rect width="16" height="16" fill="white"/>
</clipPath>
</defs>
</svg>
