<svg width="26" height="26" viewBox="0 0 26 26" fill="none" xmlns="http://www.w3.org/2000/svg">
<g clip-path="url(#clip0)">
<path d="M25.8597 7.52596C25.8537 7.51964 25.8475 7.51346 25.8412 7.50746L20.4741 2.73729C20.4251 2.69265 20.368 2.65802 20.3058 2.63525L16.4233 1.24757C16.1584 1.1514 15.8658 1.28819 15.7696 1.55303C15.7523 1.6008 15.7422 1.65086 15.7397 1.70162C15.7397 1.81386 15.5713 4.40047 12.9847 4.44129C10.3828 4.40047 10.2195 1.81386 10.2144 1.70162C10.1994 1.42026 9.95907 1.20439 9.67771 1.21944C9.62937 1.22206 9.5816 1.23149 9.53588 1.24757L5.65852 2.65056C5.59628 2.67332 5.53913 2.70795 5.49016 2.75259L0.158787 7.50746C-0.0454763 7.70152 -0.0537667 8.02446 0.140293 8.22873C0.146287 8.23504 0.152473 8.24123 0.158787 8.24722L4.40348 12.5378V24.2719C4.40348 24.5537 4.63191 24.7821 4.91366 24.7821H21.0863C21.3681 24.7821 21.5965 24.5537 21.5965 24.2719V12.5378L25.8412 8.24722C26.0455 8.05316 26.0538 7.73028 25.8597 7.52596ZM21.5812 11.0838V8.71659C21.5812 8.43484 21.3528 8.20641 21.071 8.20641C20.7893 8.20641 20.5608 8.43484 20.5608 8.71659V23.7363H5.40343V8.71659C5.40343 8.43484 5.17499 8.20641 4.89325 8.20641C4.6115 8.20641 4.38307 8.43484 4.38307 8.71659V11.0889L1.24547 7.9105L6.10237 3.56378L9.29609 2.41077C9.69174 4.44932 11.665 5.78121 13.7036 5.38556C15.2091 5.09336 16.3862 3.91625 16.6784 2.41077L19.8721 3.56378L24.7137 7.9105L21.5812 11.0838Z" fill="#E7462E"/>
</g>
<defs>
<clipPath id="clip0">
<rect width="26" height="26" fill="white"/>
</clipPath>
</defs>
</svg>
