<svg width="20" height="20" viewBox="0 0 20 20" fill="none" xmlns="http://www.w3.org/2000/svg">
<path d="M14.1914 10C14.1914 9.55469 13.8281 9.19141 13.3828 9.19141H0.804688C0.363281 9.19141 0 9.55469 0 10C0 10.4453 0.363281 10.8086 0.808594 10.8086H13.3867C13.832 10.8086 14.1914 10.4453 14.1914 10Z" fill="white"/>
<path d="M19.1914 3.06262H0.808594C0.363281 3.06262 0 3.4259 0 3.87122C0 4.31653 0.363281 4.67981 0.808594 4.67981H19.1914C19.6367 4.67981 20 4.31653 20 3.87122C20 3.4259 19.6367 3.06262 19.1914 3.06262Z" fill="white"/>
<path d="M19.1914 15.3203H0.808594C0.363281 15.3203 0 15.6836 0 16.1289C0 16.5742 0.363281 16.9375 0.808594 16.9375H19.1914C19.6367 16.9375 20 16.5742 20 16.1289C20 15.6836 19.6367 15.3203 19.1914 15.3203Z" fill="white"/>
</svg>
