<svg width="34" height="34" viewBox="0 0 34 34" fill="none" xmlns="http://www.w3.org/2000/svg">
<path d="M16.9996 0C10.3985 0 5.02832 5.45461 5.02832 12.1589V21.8414C5.02832 28.5457 10.3985 34 16.9996 34C23.6004 34 28.971 28.5623 28.971 21.8786V12.1589C28.971 5.45461 23.6004 0 16.9996 0ZM26.7193 21.8786C26.7193 27.3209 22.3593 31.7484 16.9996 31.7484C11.6403 31.7484 7.28002 27.304 7.28002 21.8411V12.1589C7.28002 6.69601 11.6403 2.25164 16.9996 2.25164C22.3594 2.25164 26.7193 6.69601 26.7193 12.1589V21.8786Z" fill="white"/>
<path d="M16.9999 9.30664C16.378 9.30664 15.874 9.81066 15.874 10.4325V14.3729C15.874 14.9947 16.378 15.4988 16.9999 15.4988C17.6217 15.4988 18.1257 14.9947 18.1257 14.3729V10.4325C18.1257 9.81066 17.6217 9.30664 16.9999 9.30664Z" fill="white"/>
</svg>
