<svg width="26" height="24" viewBox="0 0 26 24" fill="none" xmlns="http://www.w3.org/2000/svg">
<path d="M25.8597 6.52596C25.8537 6.51964 25.8475 6.51346 25.8412 6.50746L20.4741 1.73729C20.4251 1.69265 20.368 1.65802 20.3058 1.63525L16.4233 0.247565C16.1584 0.151396 15.8658 0.288188 15.7696 0.553035C15.7523 0.6008 15.7422 0.650862 15.7397 0.701624C15.7397 0.813864 15.5713 3.40047 12.9847 3.44129C10.3828 3.40047 10.2195 0.813864 10.2144 0.701624C10.1994 0.420261 9.95907 0.204391 9.67771 0.219441C9.62937 0.222056 9.5816 0.231494 9.53588 0.247565L5.65852 1.65056C5.59628 1.67332 5.53913 1.70795 5.49016 1.75259L0.158787 6.50746C-0.0454763 6.70152 -0.0537667 7.02446 0.140293 7.22873C0.146287 7.23504 0.152473 7.24123 0.158787 7.24722L4.40348 11.5378V23.2719C4.40348 23.5537 4.63191 23.7821 4.91366 23.7821H21.0863C21.3681 23.7821 21.5965 23.5537 21.5965 23.2719V11.5378L25.8412 7.24722C26.0455 7.05316 26.0538 6.73028 25.8597 6.52596ZM21.5812 10.0838V7.71659C21.5812 7.43484 21.3528 7.20641 21.071 7.20641C20.7893 7.20641 20.5608 7.43484 20.5608 7.71659V22.7363H5.40343V7.71659C5.40343 7.43484 5.17499 7.20641 4.89325 7.20641C4.6115 7.20641 4.38307 7.43484 4.38307 7.71659V10.0889L1.24547 6.9105L6.10237 2.56378L9.29609 1.41077C9.69174 3.44932 11.665 4.78121 13.7036 4.38556C15.2091 4.09336 16.3862 2.91625 16.6784 1.41077L19.8721 2.56378L24.7137 6.9105L21.5812 10.0838Z" fill="#E7462E"/>
</svg>
